<svg width="1377" height="720" viewBox="0 0 1377 720" fill="none" xmlns="http://www.w3.org/2000/svg">
<g clip-path="url(#clip0_8_30)">
<rect width="1377" height="720" fill="#242424"/>
<rect width="1377" height="720" fill="#1F1F1F"/>
<rect y="2" width="1377" height="716" fill="url(#paint0_linear_8_30)"/>
<g filter="url(#filter0_d_8_30)">
<rect x="144" y="152" width="514" height="484" rx="5" fill="white" fill-opacity="0.06"/>
<rect x="144" y="152" width="514" height="484" fill="url(#paint1_linear_8_30)" fill-opacity="0.67"/>
</g>
<g filter="url(#filter1_i_8_30)">
<rect x="164" y="301" width="474" height="63" rx="5" fill="#242323"/>
</g>
<g filter="url(#filter2_i_8_30)">
<rect x="164" y="382" width="474" height="63" rx="5" fill="#242323"/>
</g>
<rect x="164" y="477" width="474" height="63" rx="5" fill="url(#paint2_linear_8_30)"/>
<path d="M323.634 208.986C323.474 207.382 322.792 206.135 321.585 205.247C320.379 204.359 318.741 203.915 316.673 203.915C315.268 203.915 314.081 204.114 313.114 204.511C312.146 204.896 311.403 205.433 310.886 206.122C310.383 206.812 310.131 207.594 310.131 208.469C310.104 209.198 310.257 209.834 310.588 210.378C310.933 210.921 311.403 211.392 312 211.79C312.597 212.174 313.286 212.512 314.068 212.804C314.85 213.082 315.686 213.321 316.574 213.52L320.233 214.395C322.009 214.793 323.64 215.323 325.125 215.986C326.61 216.649 327.896 217.464 328.983 218.432C330.07 219.4 330.912 220.54 331.509 221.852C332.118 223.165 332.43 224.67 332.443 226.366C332.43 228.859 331.794 231.02 330.534 232.849C329.288 234.666 327.485 236.078 325.125 237.085C322.778 238.08 319.948 238.577 316.634 238.577C313.346 238.577 310.482 238.073 308.043 237.065C305.616 236.058 303.721 234.566 302.355 232.591C301.003 230.602 300.294 228.143 300.227 225.213H308.56C308.652 226.579 309.044 227.719 309.733 228.634C310.436 229.535 311.37 230.218 312.537 230.682C313.717 231.133 315.049 231.358 316.534 231.358C317.992 231.358 319.259 231.146 320.332 230.722C321.42 230.297 322.261 229.707 322.858 228.952C323.455 228.196 323.753 227.328 323.753 226.347C323.753 225.432 323.481 224.663 322.938 224.04C322.407 223.417 321.625 222.886 320.591 222.449C319.57 222.011 318.317 221.614 316.832 221.256L312.398 220.142C308.964 219.307 306.253 218.001 304.264 216.224C302.276 214.448 301.288 212.055 301.301 209.045C301.288 206.58 301.944 204.425 303.27 202.582C304.609 200.74 306.445 199.301 308.778 198.267C311.112 197.233 313.763 196.716 316.733 196.716C319.756 196.716 322.394 197.233 324.648 198.267C326.915 199.301 328.678 200.74 329.938 202.582C331.197 204.425 331.847 206.56 331.886 208.986H323.634ZM338.076 238V207.455H346.548V238H338.076ZM342.332 203.517C341.072 203.517 339.992 203.099 339.09 202.264C338.202 201.416 337.758 200.402 337.758 199.222C337.758 198.055 338.202 197.054 339.09 196.219C339.992 195.37 341.072 194.946 342.332 194.946C343.591 194.946 344.665 195.37 345.553 196.219C346.455 197.054 346.906 198.055 346.906 199.222C346.906 200.402 346.455 201.416 345.553 202.264C344.665 203.099 343.591 203.517 342.332 203.517ZM367.095 250.091C364.351 250.091 361.998 249.713 360.036 248.957C358.087 248.215 356.536 247.201 355.382 245.915C354.229 244.629 353.48 243.184 353.135 241.58L360.97 240.526C361.209 241.135 361.587 241.705 362.104 242.236C362.621 242.766 363.304 243.19 364.152 243.509C365.014 243.84 366.061 244.006 367.294 244.006C369.137 244.006 370.655 243.555 371.848 242.653C373.054 241.765 373.658 240.274 373.658 238.179V232.591H373.3C372.929 233.439 372.372 234.241 371.629 234.997C370.887 235.753 369.932 236.369 368.766 236.847C367.599 237.324 366.207 237.562 364.589 237.562C362.296 237.562 360.208 237.032 358.325 235.972C356.456 234.898 354.964 233.26 353.851 231.06C352.75 228.846 352.2 226.048 352.2 222.668C352.2 219.207 352.764 216.317 353.891 213.997C355.018 211.677 356.516 209.94 358.385 208.787C360.268 207.634 362.329 207.057 364.57 207.057C366.28 207.057 367.712 207.348 368.865 207.932C370.018 208.502 370.946 209.218 371.649 210.08C372.365 210.928 372.915 211.763 373.3 212.585H373.618V207.455H382.03V238.298C382.03 240.897 381.393 243.071 380.121 244.821C378.848 246.571 377.085 247.884 374.831 248.759C372.59 249.647 370.012 250.091 367.095 250.091ZM367.274 231.199C368.64 231.199 369.793 230.861 370.734 230.185C371.689 229.495 372.418 228.514 372.922 227.241C373.439 225.955 373.697 224.418 373.697 222.628C373.697 220.838 373.446 219.287 372.942 217.974C372.438 216.649 371.709 215.621 370.754 214.892C369.8 214.163 368.64 213.798 367.274 213.798C365.882 213.798 364.709 214.176 363.754 214.932C362.8 215.674 362.077 216.708 361.587 218.034C361.096 219.36 360.851 220.891 360.851 222.628C360.851 224.391 361.096 225.916 361.587 227.202C362.09 228.474 362.813 229.462 363.754 230.165C364.709 230.854 365.882 231.199 367.274 231.199ZM397.243 220.341V238H388.771V207.455H396.845V212.844H397.203C397.879 211.067 399.013 209.662 400.604 208.628C402.195 207.58 404.124 207.057 406.391 207.057C408.512 207.057 410.361 207.521 411.939 208.449C413.517 209.377 414.743 210.703 415.618 212.426C416.493 214.136 416.93 216.178 416.93 218.551V238H408.459V220.062C408.472 218.193 407.995 216.735 407.027 215.688C406.059 214.627 404.727 214.097 403.03 214.097C401.89 214.097 400.882 214.342 400.007 214.832C399.145 215.323 398.469 216.039 397.979 216.98C397.501 217.908 397.256 219.028 397.243 220.341ZM456.156 224.994V207.455H464.628V238H456.494V232.452H456.176C455.487 234.241 454.34 235.68 452.736 236.767C451.145 237.854 449.203 238.398 446.909 238.398C444.867 238.398 443.071 237.934 441.52 237.006C439.969 236.078 438.756 234.759 437.881 233.048C437.019 231.338 436.581 229.29 436.568 226.903V207.455H445.04V225.392C445.053 227.195 445.537 228.62 446.491 229.668C447.446 230.715 448.725 231.239 450.33 231.239C451.35 231.239 452.305 231.007 453.193 230.543C454.081 230.065 454.797 229.363 455.341 228.435C455.898 227.507 456.17 226.36 456.156 224.994ZM471.404 249.455V207.455H479.756V212.585H480.134C480.505 211.763 481.042 210.928 481.745 210.08C482.461 209.218 483.389 208.502 484.529 207.932C485.683 207.348 487.114 207.057 488.825 207.057C491.052 207.057 493.107 207.64 494.989 208.807C496.872 209.96 498.377 211.704 499.504 214.037C500.63 216.357 501.194 219.267 501.194 222.767C501.194 226.174 500.644 229.051 499.543 231.398C498.456 233.731 496.971 235.501 495.089 236.707C493.219 237.901 491.125 238.497 488.805 238.497C487.161 238.497 485.762 238.225 484.609 237.682C483.469 237.138 482.534 236.455 481.805 235.634C481.076 234.798 480.519 233.956 480.134 233.108H479.876V249.455H471.404ZM479.697 222.727C479.697 224.544 479.949 226.128 480.452 227.48C480.956 228.832 481.685 229.886 482.64 230.642C483.594 231.384 484.754 231.756 486.12 231.756C487.499 231.756 488.665 231.378 489.62 230.622C490.575 229.853 491.297 228.793 491.788 227.44C492.291 226.075 492.543 224.504 492.543 222.727C492.543 220.964 492.298 219.413 491.808 218.074C491.317 216.735 490.594 215.687 489.64 214.932C488.685 214.176 487.512 213.798 486.12 213.798C484.741 213.798 483.575 214.163 482.62 214.892C481.679 215.621 480.956 216.655 480.452 217.994C479.949 219.333 479.697 220.911 479.697 222.727Z" fill="white"/>
<path d="M196.626 326.455H197.955V336.085C197.955 337.075 197.723 337.96 197.259 338.741C196.795 339.518 196.148 340.131 195.32 340.581C194.496 341.026 193.537 341.249 192.443 341.249C191.354 341.249 190.395 341.024 189.567 340.574C188.738 340.124 188.092 339.511 187.628 338.734C187.164 337.958 186.932 337.075 186.932 336.085V326.455H188.26V335.993C188.26 336.765 188.433 337.454 188.778 338.06C189.124 338.661 189.609 339.134 190.234 339.48C190.864 339.826 191.6 339.999 192.443 339.999C193.286 339.999 194.022 339.826 194.652 339.48C195.282 339.134 195.767 338.661 196.108 338.06C196.454 337.454 196.626 336.765 196.626 335.993V326.455ZM208.881 332.484L207.724 332.811C207.61 332.484 207.449 332.188 207.241 331.923C207.032 331.658 206.76 331.447 206.424 331.291C206.093 331.135 205.681 331.057 205.188 331.057C204.45 331.057 203.844 331.232 203.37 331.582C202.897 331.933 202.66 332.385 202.66 332.939C202.66 333.408 202.821 333.789 203.143 334.082C203.469 334.371 203.971 334.601 204.648 334.771L206.296 335.176C207.21 335.399 207.894 335.751 208.349 336.234C208.808 336.717 209.038 337.323 209.038 338.053C209.038 338.668 208.867 339.215 208.526 339.693C208.185 340.171 207.71 340.548 207.099 340.822C206.493 341.092 205.79 341.227 204.989 341.227C203.924 341.227 203.046 340.988 202.354 340.51C201.663 340.027 201.22 339.331 201.026 338.422L202.241 338.124C202.397 338.772 202.702 339.262 203.157 339.594C203.616 339.925 204.22 340.091 204.968 340.091C205.806 340.091 206.476 339.904 206.978 339.53C207.48 339.151 207.731 338.678 207.731 338.109C207.731 337.669 207.584 337.3 207.29 337.001C206.997 336.698 206.552 336.476 205.955 336.334L204.173 335.908C203.226 335.68 202.525 335.321 202.07 334.828C201.616 334.336 201.388 333.725 201.388 332.996C201.388 332.394 201.552 331.866 201.879 331.412C202.205 330.953 202.655 330.593 203.228 330.332C203.801 330.072 204.454 329.942 205.188 329.942C206.187 329.942 206.985 330.169 207.582 330.624C208.183 331.073 208.616 331.694 208.881 332.484ZM216.216 341.227C215.198 341.227 214.318 340.991 213.574 340.517C212.831 340.039 212.256 339.378 211.848 338.536C211.446 337.688 211.245 336.713 211.245 335.609C211.245 334.511 211.446 333.536 211.848 332.683C212.256 331.826 212.817 331.156 213.532 330.673C214.251 330.186 215.082 329.942 216.025 329.942C216.616 329.942 217.187 330.051 217.736 330.268C218.285 330.482 218.778 330.811 219.213 331.256C219.654 331.696 220.002 332.252 220.257 332.925C220.513 333.592 220.641 334.383 220.641 335.297V335.922H212.118V334.807H219.348C219.348 334.106 219.206 333.476 218.922 332.918C218.643 332.354 218.252 331.909 217.75 331.582C217.253 331.256 216.678 331.092 216.025 331.092C215.333 331.092 214.725 331.277 214.199 331.646C213.674 332.016 213.262 332.503 212.963 333.109C212.67 333.715 212.521 334.378 212.516 335.098V335.766C212.516 336.632 212.665 337.39 212.963 338.038C213.266 338.682 213.695 339.182 214.249 339.537C214.803 339.892 215.459 340.07 216.216 340.07C216.732 340.07 217.185 339.989 217.573 339.828C217.966 339.667 218.295 339.452 218.56 339.182C218.83 338.907 219.033 338.607 219.171 338.28L220.371 338.67C220.205 339.13 219.933 339.554 219.554 339.942C219.18 340.33 218.712 340.643 218.148 340.879C217.589 341.111 216.945 341.227 216.216 341.227ZM223.427 341V330.091H224.656V331.767H224.748C224.966 331.218 225.344 330.775 225.884 330.439C226.429 330.098 227.044 329.928 227.731 329.928C227.835 329.928 227.951 329.93 228.079 329.935C228.207 329.939 228.313 329.944 228.398 329.949V331.234C228.342 331.225 228.242 331.211 228.1 331.192C227.958 331.173 227.804 331.163 227.638 331.163C227.07 331.163 226.564 331.284 226.119 331.526C225.678 331.762 225.33 332.091 225.075 332.513C224.819 332.934 224.691 333.415 224.691 333.955V341H223.427ZM247.772 326.455V341H246.479L237.885 328.82H237.772V341H236.444V326.455H237.729L246.351 338.649H246.465V326.455H247.772ZM254.423 341.249C253.765 341.249 253.163 341.121 252.619 340.865C252.074 340.605 251.641 340.231 251.319 339.743C250.997 339.25 250.836 338.654 250.836 337.953C250.836 337.413 250.938 336.959 251.142 336.589C251.345 336.22 251.634 335.917 252.008 335.68C252.382 335.444 252.825 335.257 253.336 335.119C253.848 334.982 254.411 334.875 255.027 334.8C255.637 334.724 256.154 334.658 256.575 334.601C257.001 334.544 257.325 334.454 257.548 334.331C257.77 334.208 257.882 334.009 257.882 333.734V333.479C257.882 332.735 257.659 332.151 257.214 331.724C256.774 331.294 256.139 331.078 255.311 331.078C254.525 331.078 253.883 331.251 253.386 331.597C252.894 331.942 252.548 332.349 252.349 332.818L251.149 332.385C251.395 331.788 251.736 331.312 252.172 330.957C252.607 330.598 253.095 330.339 253.635 330.183C254.174 330.022 254.721 329.942 255.275 329.942C255.692 329.942 256.125 329.996 256.575 330.105C257.029 330.214 257.451 330.403 257.839 330.673C258.227 330.938 258.542 331.31 258.784 331.788C259.025 332.262 259.146 332.863 259.146 333.592V341H257.882V339.274H257.804C257.652 339.596 257.427 339.909 257.129 340.212C256.831 340.515 256.457 340.763 256.007 340.957C255.557 341.152 255.029 341.249 254.423 341.249ZM254.593 340.091C255.266 340.091 255.848 339.942 256.341 339.643C256.833 339.345 257.212 338.95 257.477 338.457C257.747 337.96 257.882 337.413 257.882 336.817V335.24C257.787 335.33 257.628 335.411 257.406 335.482C257.188 335.553 256.935 335.616 256.646 335.673C256.362 335.725 256.078 335.77 255.794 335.808C255.51 335.846 255.254 335.879 255.027 335.908C254.411 335.983 253.886 336.102 253.45 336.263C253.014 336.424 252.681 336.646 252.449 336.93C252.217 337.21 252.1 337.57 252.1 338.01C252.1 338.673 252.337 339.187 252.811 339.551C253.284 339.911 253.878 340.091 254.593 340.091ZM262.509 341V330.091H263.738V331.767H263.851C264.069 331.204 264.431 330.761 264.938 330.439C265.449 330.112 266.062 329.949 266.777 329.949C267.53 329.949 268.148 330.126 268.631 330.482C269.119 330.832 269.483 331.315 269.725 331.93H269.817C270.063 331.324 270.463 330.844 271.017 330.489C271.576 330.129 272.253 329.949 273.049 329.949C274.062 329.949 274.862 330.268 275.449 330.908C276.036 331.542 276.33 332.47 276.33 333.692V341H275.066V333.692C275.066 332.83 274.846 332.184 274.405 331.753C273.965 331.322 273.385 331.107 272.665 331.107C271.832 331.107 271.19 331.362 270.74 331.874C270.291 332.385 270.066 333.034 270.066 333.82V341H268.773V333.578C268.773 332.839 268.567 332.243 268.155 331.788C267.743 331.334 267.163 331.107 266.415 331.107C265.913 331.107 265.461 331.23 265.059 331.476C264.661 331.722 264.346 332.065 264.114 332.506C263.887 332.941 263.773 333.443 263.773 334.011V341H262.509ZM284.087 341.227C283.069 341.227 282.189 340.991 281.445 340.517C280.702 340.039 280.127 339.378 279.719 338.536C279.317 337.688 279.116 336.713 279.116 335.609C279.116 334.511 279.317 333.536 279.719 332.683C280.127 331.826 280.688 331.156 281.403 330.673C282.122 330.186 282.953 329.942 283.896 329.942C284.487 329.942 285.058 330.051 285.607 330.268C286.156 330.482 286.649 330.811 287.085 331.256C287.525 331.696 287.873 332.252 288.129 332.925C288.384 333.592 288.512 334.383 288.512 335.297V335.922H279.989V334.807H287.219C287.219 334.106 287.077 333.476 286.793 332.918C286.514 332.354 286.123 331.909 285.621 331.582C285.124 331.256 284.549 331.092 283.896 331.092C283.204 331.092 282.596 331.277 282.07 331.646C281.545 332.016 281.133 332.503 280.835 333.109C280.541 333.715 280.392 334.378 280.387 335.098V335.766C280.387 336.632 280.536 337.39 280.835 338.038C281.138 338.682 281.566 339.182 282.12 339.537C282.674 339.892 283.33 340.07 284.087 340.07C284.603 340.07 285.056 339.989 285.444 339.828C285.837 339.667 286.166 339.452 286.431 339.182C286.701 338.907 286.905 338.607 287.042 338.28L288.242 338.67C288.076 339.13 287.804 339.554 287.425 339.942C287.051 340.33 286.583 340.643 286.019 340.879C285.46 341.111 284.817 341.227 284.087 341.227Z" fill="#ADA6A6"/>
<path d="M186.932 420V405.455H191.626C192.659 405.455 193.52 405.653 194.212 406.051C194.908 406.444 195.431 406.979 195.781 407.656C196.136 408.333 196.314 409.096 196.314 409.943C196.314 410.791 196.139 411.555 195.788 412.237C195.438 412.914 194.917 413.452 194.226 413.849C193.535 414.242 192.675 414.439 191.648 414.439H187.955V413.246H191.612C192.375 413.246 193.007 413.104 193.509 412.82C194.01 412.531 194.384 412.138 194.631 411.641C194.882 411.143 195.007 410.578 195.007 409.943C195.007 409.309 194.882 408.743 194.631 408.246C194.384 407.749 194.008 407.358 193.501 407.074C193 406.79 192.363 406.648 191.591 406.648H188.26V420H186.932ZM202.216 420.249C201.558 420.249 200.956 420.121 200.412 419.865C199.867 419.605 199.434 419.231 199.112 418.743C198.79 418.25 198.629 417.654 198.629 416.953C198.629 416.413 198.731 415.959 198.935 415.589C199.138 415.22 199.427 414.917 199.801 414.68C200.175 414.444 200.618 414.257 201.129 414.119C201.641 413.982 202.204 413.875 202.82 413.8C203.43 413.724 203.946 413.658 204.368 413.601C204.794 413.544 205.118 413.454 205.341 413.331C205.563 413.208 205.675 413.009 205.675 412.734V412.479C205.675 411.735 205.452 411.151 205.007 410.724C204.567 410.294 203.932 410.078 203.104 410.078C202.318 410.078 201.676 410.251 201.179 410.597C200.687 410.942 200.341 411.349 200.142 411.818L198.942 411.385C199.188 410.788 199.529 410.312 199.964 409.957C200.4 409.598 200.888 409.339 201.428 409.183C201.967 409.022 202.514 408.942 203.068 408.942C203.485 408.942 203.918 408.996 204.368 409.105C204.822 409.214 205.244 409.403 205.632 409.673C206.02 409.938 206.335 410.31 206.577 410.788C206.818 411.262 206.939 411.863 206.939 412.592V420H205.675V418.274H205.597C205.445 418.596 205.22 418.909 204.922 419.212C204.624 419.515 204.25 419.763 203.8 419.957C203.35 420.152 202.822 420.249 202.216 420.249ZM202.386 419.091C203.059 419.091 203.641 418.942 204.134 418.643C204.626 418.345 205.005 417.95 205.27 417.457C205.54 416.96 205.675 416.413 205.675 415.817V414.24C205.58 414.33 205.421 414.411 205.199 414.482C204.981 414.553 204.728 414.616 204.439 414.673C204.155 414.725 203.871 414.77 203.587 414.808C203.303 414.846 203.047 414.879 202.82 414.908C202.204 414.983 201.679 415.102 201.243 415.263C200.807 415.424 200.473 415.646 200.241 415.93C200.009 416.21 199.893 416.57 199.893 417.01C199.893 417.673 200.13 418.187 200.604 418.551C201.077 418.911 201.671 419.091 202.386 419.091ZM217.631 411.484L216.474 411.811C216.36 411.484 216.199 411.188 215.991 410.923C215.782 410.658 215.51 410.447 215.174 410.291C214.843 410.135 214.431 410.057 213.938 410.057C213.2 410.057 212.594 410.232 212.12 410.582C211.647 410.933 211.41 411.385 211.41 411.939C211.41 412.408 211.571 412.789 211.893 413.082C212.219 413.371 212.721 413.601 213.398 413.771L215.046 414.176C215.96 414.399 216.644 414.751 217.099 415.234C217.558 415.717 217.788 416.323 217.788 417.053C217.788 417.668 217.617 418.215 217.276 418.693C216.935 419.171 216.46 419.548 215.849 419.822C215.243 420.092 214.54 420.227 213.739 420.227C212.674 420.227 211.796 419.988 211.104 419.51C210.413 419.027 209.97 418.331 209.776 417.422L210.991 417.124C211.147 417.772 211.452 418.262 211.907 418.594C212.366 418.925 212.97 419.091 213.718 419.091C214.556 419.091 215.226 418.904 215.728 418.53C216.23 418.151 216.481 417.678 216.481 417.109C216.481 416.669 216.334 416.3 216.04 416.001C215.747 415.698 215.302 415.476 214.705 415.334L212.923 414.908C211.976 414.68 211.275 414.321 210.82 413.828C210.366 413.336 210.138 412.725 210.138 411.996C210.138 411.394 210.302 410.866 210.629 410.412C210.955 409.953 211.405 409.593 211.978 409.332C212.551 409.072 213.204 408.942 213.938 408.942C214.937 408.942 215.735 409.169 216.332 409.624C216.933 410.073 217.366 410.694 217.631 411.484ZM227.885 411.484L226.728 411.811C226.614 411.484 226.453 411.188 226.245 410.923C226.036 410.658 225.764 410.447 225.428 410.291C225.096 410.135 224.685 410.057 224.192 410.057C223.453 410.057 222.847 410.232 222.374 410.582C221.9 410.933 221.664 411.385 221.664 411.939C221.664 412.408 221.825 412.789 222.147 413.082C222.473 413.371 222.975 413.601 223.652 413.771L225.3 414.176C226.214 414.399 226.898 414.751 227.353 415.234C227.812 415.717 228.042 416.323 228.042 417.053C228.042 417.668 227.871 418.215 227.53 418.693C227.189 419.171 226.713 419.548 226.103 419.822C225.497 420.092 224.793 420.227 223.993 420.227C222.928 420.227 222.05 419.988 221.358 419.51C220.667 419.027 220.224 418.331 220.03 417.422L221.245 417.124C221.401 417.772 221.706 418.262 222.161 418.594C222.62 418.925 223.224 419.091 223.972 419.091C224.81 419.091 225.48 418.904 225.982 418.53C226.484 418.151 226.735 417.678 226.735 417.109C226.735 416.669 226.588 416.3 226.294 416.001C226.001 415.698 225.556 415.476 224.959 415.334L223.176 414.908C222.23 414.68 221.529 414.321 221.074 413.828C220.62 413.336 220.392 412.725 220.392 411.996C220.392 411.394 220.556 410.866 220.882 410.412C221.209 409.953 221.659 409.593 222.232 409.332C222.805 409.072 223.458 408.942 224.192 408.942C225.191 408.942 225.989 409.169 226.586 409.624C227.187 410.073 227.62 410.694 227.885 411.484ZM232.917 420L228.933 405.455H230.282L233.578 417.962H233.691L236.987 405.455H238.521L241.816 417.962H241.93L245.225 405.455H246.582L242.598 420H241.177L237.804 407.663H237.711L234.338 420H232.917ZM251.944 420.227C251.002 420.227 250.169 419.988 249.444 419.51C248.725 419.032 248.161 418.371 247.754 417.528C247.347 416.681 247.143 415.703 247.143 414.595C247.143 413.478 247.347 412.495 247.754 411.648C248.161 410.795 248.725 410.133 249.444 409.659C250.169 409.181 251.002 408.942 251.944 408.942C252.886 408.942 253.717 409.181 254.437 409.659C255.157 410.137 255.72 410.8 256.127 411.648C256.539 412.495 256.745 413.478 256.745 414.595C256.745 415.703 256.542 416.681 256.135 417.528C255.727 418.371 255.162 419.032 254.437 419.51C253.717 419.988 252.886 420.227 251.944 420.227ZM251.944 419.07C252.702 419.07 253.343 418.866 253.869 418.459C254.395 418.052 254.792 417.509 255.062 416.832C255.337 416.155 255.474 415.41 255.474 414.595C255.474 413.781 255.337 413.033 255.062 412.351C254.792 411.669 254.395 411.122 253.869 410.71C253.343 410.298 252.702 410.092 251.944 410.092C251.191 410.092 250.55 410.298 250.02 410.71C249.494 411.122 249.094 411.669 248.819 412.351C248.549 413.033 248.414 413.781 248.414 414.595C248.414 415.41 248.549 416.155 248.819 416.832C249.094 417.509 249.494 418.052 250.02 418.459C250.545 418.866 251.187 419.07 251.944 419.07ZM259.521 420V409.091H260.749V410.767H260.842C261.059 410.218 261.438 409.775 261.978 409.439C262.522 409.098 263.138 408.928 263.825 408.928C263.929 408.928 264.045 408.93 264.173 408.935C264.3 408.939 264.407 408.944 264.492 408.949V410.234C264.435 410.225 264.336 410.211 264.194 410.192C264.052 410.173 263.898 410.163 263.732 410.163C263.164 410.163 262.657 410.284 262.212 410.526C261.772 410.762 261.424 411.091 261.168 411.513C260.913 411.934 260.785 412.415 260.785 412.955V420H259.521ZM270.245 420.227C269.35 420.227 268.567 419.991 267.894 419.517C267.222 419.044 266.696 418.383 266.317 417.536C265.943 416.688 265.756 415.701 265.756 414.574C265.756 413.452 265.943 412.469 266.317 411.626C266.696 410.779 267.224 410.121 267.901 409.652C268.578 409.179 269.367 408.942 270.266 408.942C270.929 408.942 271.481 409.06 271.921 409.297C272.362 409.529 272.714 409.818 272.979 410.163C273.245 410.509 273.451 410.845 273.597 411.172H273.711V405.455H274.982V420H273.746V417.976H273.597C273.451 418.307 273.242 418.648 272.972 418.999C272.702 419.344 272.345 419.635 271.9 419.872C271.46 420.109 270.908 420.227 270.245 420.227ZM270.394 419.07C271.1 419.07 271.701 418.878 272.198 418.494C272.695 418.106 273.074 417.573 273.335 416.896C273.6 416.214 273.732 415.433 273.732 414.553C273.732 413.681 273.602 412.912 273.342 412.244C273.081 411.572 272.702 411.046 272.205 410.668C271.708 410.284 271.104 410.092 270.394 410.092C269.665 410.092 269.049 410.291 268.548 410.689C268.05 411.082 267.672 411.615 267.411 412.287C267.156 412.959 267.028 413.714 267.028 414.553C267.028 415.4 267.158 416.165 267.418 416.847C267.679 417.528 268.058 418.071 268.555 418.473C269.057 418.871 269.67 419.07 270.394 419.07Z" fill="#ADA6A6"/>
<path d="M358.438 504.131C358.347 503.324 357.972 502.699 357.312 502.256C356.653 501.807 355.824 501.582 354.824 501.582C354.108 501.582 353.489 501.696 352.966 501.923C352.443 502.145 352.037 502.452 351.747 502.844C351.463 503.23 351.321 503.67 351.321 504.165C351.321 504.58 351.418 504.937 351.611 505.239C351.81 505.54 352.068 505.793 352.386 505.997C352.71 506.196 353.057 506.364 353.426 506.5C353.795 506.631 354.151 506.739 354.491 506.824L356.196 507.267C356.753 507.403 357.324 507.588 357.909 507.821C358.494 508.054 359.037 508.361 359.537 508.741C360.037 509.122 360.44 509.594 360.747 510.156C361.06 510.719 361.216 511.392 361.216 512.176C361.216 513.165 360.96 514.043 360.449 514.81C359.943 515.577 359.207 516.182 358.241 516.625C357.281 517.068 356.119 517.29 354.756 517.29C353.449 517.29 352.318 517.082 351.364 516.668C350.409 516.253 349.662 515.665 349.122 514.903C348.582 514.136 348.284 513.227 348.227 512.176H350.869C350.92 512.807 351.125 513.332 351.483 513.753C351.847 514.168 352.31 514.477 352.872 514.682C353.44 514.881 354.062 514.98 354.739 514.98C355.483 514.98 356.145 514.864 356.724 514.631C357.31 514.392 357.77 514.062 358.105 513.642C358.44 513.216 358.608 512.719 358.608 512.151C358.608 511.634 358.46 511.21 358.165 510.881C357.875 510.551 357.48 510.278 356.98 510.062C356.486 509.847 355.926 509.656 355.301 509.491L353.239 508.929C351.841 508.548 350.733 507.989 349.915 507.25C349.102 506.511 348.696 505.534 348.696 504.318C348.696 503.312 348.969 502.435 349.514 501.685C350.06 500.935 350.798 500.352 351.73 499.938C352.662 499.517 353.713 499.307 354.884 499.307C356.065 499.307 357.108 499.514 358.011 499.929C358.92 500.344 359.636 500.915 360.159 501.642C360.682 502.364 360.955 503.193 360.977 504.131H358.438ZM372.451 511.571V503.909H375.008V517H372.502V514.733H372.366C372.065 515.432 371.582 516.014 370.917 516.48C370.258 516.94 369.437 517.17 368.454 517.17C367.613 517.17 366.869 516.986 366.221 516.616C365.579 516.241 365.073 515.688 364.704 514.955C364.34 514.222 364.158 513.315 364.158 512.236V503.909H366.707V511.929C366.707 512.821 366.954 513.531 367.448 514.06C367.942 514.588 368.585 514.852 369.374 514.852C369.852 514.852 370.326 514.733 370.798 514.494C371.275 514.256 371.67 513.895 371.982 513.412C372.3 512.929 372.457 512.315 372.451 511.571ZM378.636 517V499.545H381.185V506.031H381.338C381.486 505.759 381.699 505.443 381.977 505.085C382.256 504.727 382.642 504.415 383.136 504.148C383.631 503.875 384.284 503.739 385.097 503.739C386.153 503.739 387.097 504.006 387.926 504.54C388.756 505.074 389.406 505.844 389.878 506.849C390.355 507.855 390.594 509.065 390.594 510.48C390.594 511.895 390.358 513.108 389.886 514.119C389.415 515.125 388.767 515.901 387.943 516.446C387.119 516.986 386.179 517.256 385.122 517.256C384.327 517.256 383.676 517.122 383.17 516.855C382.67 516.588 382.278 516.276 381.994 515.918C381.71 515.56 381.491 515.241 381.338 514.963H381.125V517H378.636ZM381.134 510.455C381.134 511.375 381.267 512.182 381.534 512.875C381.801 513.568 382.188 514.111 382.693 514.503C383.199 514.889 383.818 515.082 384.551 515.082C385.312 515.082 385.949 514.881 386.46 514.477C386.972 514.068 387.358 513.514 387.619 512.815C387.886 512.116 388.02 511.33 388.02 510.455C388.02 509.591 387.889 508.815 387.628 508.128C387.372 507.44 386.986 506.898 386.469 506.5C385.957 506.102 385.318 505.903 384.551 505.903C383.812 505.903 383.188 506.094 382.676 506.474C382.17 506.855 381.787 507.386 381.526 508.068C381.264 508.75 381.134 509.545 381.134 510.455ZM393.455 517V503.909H395.901V506.04H396.063C396.336 505.318 396.782 504.756 397.401 504.352C398.021 503.943 398.762 503.739 399.626 503.739C400.501 503.739 401.234 503.943 401.825 504.352C402.421 504.761 402.862 505.324 403.146 506.04H403.282C403.594 505.341 404.092 504.784 404.773 504.369C405.455 503.949 406.268 503.739 407.211 503.739C408.398 503.739 409.367 504.111 410.117 504.855C410.873 505.599 411.251 506.722 411.251 508.222V517H408.702V508.46C408.702 507.574 408.461 506.932 407.978 506.534C407.495 506.136 406.918 505.938 406.248 505.938C405.418 505.938 404.773 506.193 404.313 506.705C403.853 507.21 403.623 507.861 403.623 508.656V517H401.083V508.298C401.083 507.588 400.862 507.017 400.418 506.585C399.975 506.153 399.398 505.938 398.688 505.938C398.205 505.938 397.759 506.065 397.35 506.321C396.947 506.571 396.62 506.92 396.37 507.369C396.126 507.818 396.004 508.338 396.004 508.929V517H393.455ZM414.666 517V503.909H417.214V517H414.666ZM415.953 501.889C415.51 501.889 415.129 501.741 414.811 501.446C414.499 501.145 414.342 500.787 414.342 500.372C414.342 499.952 414.499 499.594 414.811 499.298C415.129 498.997 415.51 498.847 415.953 498.847C416.396 498.847 416.774 498.997 417.087 499.298C417.405 499.594 417.564 499.952 417.564 500.372C417.564 500.787 417.405 501.145 417.087 501.446C416.774 501.741 416.396 501.889 415.953 501.889ZM426.754 503.909V505.955H419.603V503.909H426.754ZM421.521 500.773H424.069V513.156C424.069 513.651 424.143 514.023 424.29 514.273C424.438 514.517 424.629 514.685 424.862 514.776C425.1 514.861 425.359 514.903 425.637 514.903C425.842 514.903 426.021 514.889 426.174 514.861C426.327 514.832 426.447 514.81 426.532 514.793L426.992 516.898C426.844 516.955 426.634 517.011 426.362 517.068C426.089 517.131 425.748 517.165 425.339 517.17C424.668 517.182 424.043 517.062 423.464 516.812C422.884 516.562 422.415 516.176 422.058 515.653C421.7 515.131 421.521 514.474 421.521 513.685V500.773Z" fill="#D6D6D6"/>
<path d="M172.034 575.364V587H170.278V575.364H172.034ZM180.388 581.818V587H178.689V575.364H180.365V579.693H180.473C180.678 579.223 180.99 578.85 181.411 578.574C181.831 578.297 182.38 578.159 183.058 578.159C183.657 578.159 184.179 578.282 184.626 578.528C185.077 578.775 185.426 579.142 185.672 579.631C185.922 580.116 186.047 580.722 186.047 581.449V587H184.348V581.653C184.348 581.013 184.183 580.517 183.854 580.165C183.524 579.809 183.066 579.631 182.479 579.631C182.077 579.631 181.717 579.716 181.399 579.886C181.085 580.057 180.837 580.307 180.655 580.636C180.477 580.962 180.388 581.356 180.388 581.818ZM190.854 587.193C190.301 587.193 189.801 587.091 189.354 586.886C188.907 586.678 188.553 586.377 188.291 585.983C188.034 585.589 187.905 585.106 187.905 584.534C187.905 584.042 188 583.636 188.189 583.318C188.378 583 188.634 582.748 188.956 582.562C189.278 582.377 189.638 582.237 190.036 582.142C190.433 582.047 190.839 581.975 191.251 581.926C191.774 581.866 192.198 581.816 192.524 581.778C192.85 581.737 193.087 581.67 193.234 581.58C193.382 581.489 193.456 581.341 193.456 581.136V581.097C193.456 580.6 193.316 580.216 193.036 579.943C192.759 579.67 192.346 579.534 191.797 579.534C191.225 579.534 190.774 579.661 190.445 579.915C190.119 580.165 189.893 580.443 189.768 580.75L188.172 580.386C188.361 579.856 188.638 579.428 189.001 579.102C189.369 578.773 189.791 578.534 190.268 578.386C190.746 578.235 191.248 578.159 191.774 578.159C192.123 578.159 192.492 578.201 192.882 578.284C193.276 578.364 193.643 578.511 193.984 578.727C194.329 578.943 194.611 579.252 194.831 579.653C195.051 580.051 195.161 580.568 195.161 581.205V587H193.501V585.807H193.433C193.323 586.027 193.159 586.242 192.939 586.455C192.719 586.667 192.437 586.843 192.092 586.983C191.748 587.123 191.335 587.193 190.854 587.193ZM191.223 585.83C191.693 585.83 192.094 585.737 192.428 585.551C192.765 585.366 193.02 585.123 193.195 584.824C193.373 584.521 193.462 584.197 193.462 583.852V582.727C193.401 582.788 193.284 582.845 193.109 582.898C192.939 582.947 192.744 582.991 192.524 583.028C192.304 583.062 192.09 583.095 191.882 583.125C191.674 583.152 191.5 583.174 191.359 583.193C191.03 583.235 190.729 583.305 190.456 583.403C190.187 583.502 189.971 583.644 189.808 583.83C189.649 584.011 189.57 584.254 189.57 584.557C189.57 584.977 189.725 585.295 190.036 585.511C190.346 585.723 190.742 585.83 191.223 585.83ZM204.577 578.273L201.412 587H199.594L196.423 578.273H198.247L200.457 584.989H200.548L202.753 578.273H204.577ZM209.638 587.176C208.778 587.176 208.037 586.992 207.416 586.625C206.799 586.254 206.321 585.733 205.984 585.062C205.651 584.388 205.484 583.598 205.484 582.693C205.484 581.799 205.651 581.011 205.984 580.33C206.321 579.648 206.791 579.116 207.393 578.733C208 578.35 208.708 578.159 209.518 578.159C210.011 578.159 210.488 578.241 210.95 578.403C211.412 578.566 211.827 578.822 212.195 579.17C212.562 579.519 212.852 579.972 213.064 580.528C213.276 581.081 213.382 581.754 213.382 582.545V583.148H206.445V581.875H211.717C211.717 581.428 211.626 581.032 211.445 580.688C211.263 580.339 211.007 580.064 210.678 579.864C210.352 579.663 209.969 579.562 209.53 579.562C209.053 579.562 208.636 579.68 208.28 579.915C207.928 580.146 207.655 580.449 207.462 580.824C207.272 581.195 207.178 581.598 207.178 582.034V583.028C207.178 583.612 207.28 584.108 207.484 584.517C207.693 584.926 207.982 585.239 208.354 585.455C208.725 585.667 209.159 585.773 209.655 585.773C209.977 585.773 210.27 585.727 210.536 585.636C210.801 585.542 211.03 585.402 211.223 585.216C211.416 585.03 211.564 584.801 211.666 584.528L213.274 584.818C213.145 585.292 212.914 585.706 212.581 586.062C212.251 586.415 211.837 586.689 211.337 586.886C210.84 587.08 210.274 587.176 209.638 587.176ZM222.041 587.193C221.488 587.193 220.988 587.091 220.541 586.886C220.094 586.678 219.74 586.377 219.479 585.983C219.221 585.589 219.092 585.106 219.092 584.534C219.092 584.042 219.187 583.636 219.376 583.318C219.566 583 219.821 582.748 220.143 582.562C220.465 582.377 220.825 582.237 221.223 582.142C221.621 582.047 222.026 581.975 222.439 581.926C222.962 581.866 223.386 581.816 223.712 581.778C224.037 581.737 224.274 581.67 224.422 581.58C224.57 581.489 224.643 581.341 224.643 581.136V581.097C224.643 580.6 224.503 580.216 224.223 579.943C223.946 579.67 223.534 579.534 222.984 579.534C222.412 579.534 221.962 579.661 221.632 579.915C221.306 580.165 221.081 580.443 220.956 580.75L219.359 580.386C219.549 579.856 219.825 579.428 220.189 579.102C220.556 578.773 220.979 578.534 221.456 578.386C221.933 578.235 222.435 578.159 222.962 578.159C223.31 578.159 223.679 578.201 224.07 578.284C224.464 578.364 224.831 578.511 225.172 578.727C225.517 578.943 225.799 579.252 226.018 579.653C226.238 580.051 226.348 580.568 226.348 581.205V587H224.689V585.807H224.621C224.511 586.027 224.346 586.242 224.126 586.455C223.907 586.667 223.625 586.843 223.28 586.983C222.935 587.123 222.522 587.193 222.041 587.193ZM222.411 585.83C222.88 585.83 223.282 585.737 223.615 585.551C223.952 585.366 224.208 585.123 224.382 584.824C224.56 584.521 224.649 584.197 224.649 583.852V582.727C224.589 582.788 224.471 582.845 224.297 582.898C224.126 582.947 223.931 582.991 223.712 583.028C223.492 583.062 223.278 583.095 223.07 583.125C222.861 583.152 222.687 583.174 222.547 583.193C222.217 583.235 221.916 583.305 221.643 583.403C221.375 583.502 221.159 583.644 220.996 583.83C220.837 584.011 220.757 584.254 220.757 584.557C220.757 584.977 220.912 585.295 221.223 585.511C221.534 585.723 221.929 585.83 222.411 585.83ZM230.31 581.818V587H228.611V578.273H230.241V579.693H230.349C230.55 579.231 230.865 578.86 231.293 578.58C231.724 578.299 232.268 578.159 232.923 578.159C233.518 578.159 234.039 578.284 234.486 578.534C234.933 578.78 235.279 579.148 235.526 579.636C235.772 580.125 235.895 580.729 235.895 581.449V587H234.196V581.653C234.196 581.021 234.031 580.527 233.702 580.17C233.372 579.811 232.92 579.631 232.344 579.631C231.95 579.631 231.599 579.716 231.293 579.886C230.99 580.057 230.749 580.307 230.571 580.636C230.397 580.962 230.31 581.356 230.31 581.818ZM244.947 587.193C244.394 587.193 243.894 587.091 243.447 586.886C243 586.678 242.646 586.377 242.385 585.983C242.127 585.589 241.999 585.106 241.999 584.534C241.999 584.042 242.093 583.636 242.283 583.318C242.472 583 242.728 582.748 243.05 582.562C243.372 582.377 243.732 582.237 244.129 582.142C244.527 582.047 244.932 581.975 245.345 581.926C245.868 581.866 246.292 581.816 246.618 581.778C246.944 581.737 247.18 581.67 247.328 581.58C247.476 581.489 247.55 581.341 247.55 581.136V581.097C247.55 580.6 247.41 580.216 247.129 579.943C246.853 579.67 246.44 579.534 245.891 579.534C245.319 579.534 244.868 579.661 244.538 579.915C244.213 580.165 243.987 580.443 243.862 580.75L242.266 580.386C242.455 579.856 242.732 579.428 243.095 579.102C243.463 578.773 243.885 578.534 244.362 578.386C244.839 578.235 245.341 578.159 245.868 578.159C246.216 578.159 246.586 578.201 246.976 578.284C247.37 578.364 247.737 578.511 248.078 578.727C248.423 578.943 248.705 579.252 248.925 579.653C249.144 580.051 249.254 580.568 249.254 581.205V587H247.595V585.807H247.527C247.417 586.027 247.252 586.242 247.033 586.455C246.813 586.667 246.531 586.843 246.186 586.983C245.841 587.123 245.429 587.193 244.947 587.193ZM245.317 585.83C245.786 585.83 246.188 585.737 246.521 585.551C246.858 585.366 247.114 585.123 247.288 584.824C247.466 584.521 247.555 584.197 247.555 583.852V582.727C247.495 582.788 247.377 582.845 247.203 582.898C247.033 582.947 246.838 582.991 246.618 583.028C246.398 583.062 246.184 583.095 245.976 583.125C245.768 583.152 245.593 583.174 245.453 583.193C245.124 583.235 244.822 583.305 244.55 583.403C244.281 583.502 244.065 583.644 243.902 583.83C243.743 584.011 243.663 584.254 243.663 584.557C243.663 584.977 243.819 585.295 244.129 585.511C244.44 585.723 244.836 585.83 245.317 585.83ZM255.193 587.176C254.348 587.176 253.621 586.985 253.011 586.602C252.405 586.216 251.939 585.684 251.614 585.006C251.288 584.328 251.125 583.551 251.125 582.676C251.125 581.79 251.292 581.008 251.625 580.33C251.958 579.648 252.428 579.116 253.034 578.733C253.64 578.35 254.354 578.159 255.176 578.159C255.839 578.159 256.43 578.282 256.949 578.528C257.468 578.771 257.886 579.112 258.205 579.551C258.527 579.991 258.718 580.504 258.778 581.091H257.125C257.034 580.682 256.826 580.33 256.5 580.034C256.178 579.739 255.746 579.591 255.205 579.591C254.731 579.591 254.316 579.716 253.96 579.966C253.608 580.212 253.333 580.564 253.136 581.023C252.939 581.477 252.841 582.015 252.841 582.636C252.841 583.273 252.938 583.822 253.131 584.284C253.324 584.746 253.597 585.104 253.949 585.358C254.305 585.612 254.723 585.739 255.205 585.739C255.527 585.739 255.818 585.68 256.08 585.562C256.345 585.441 256.566 585.269 256.744 585.045C256.926 584.822 257.053 584.553 257.125 584.239H258.778C258.718 584.803 258.534 585.307 258.227 585.75C257.92 586.193 257.509 586.542 256.994 586.795C256.483 587.049 255.883 587.176 255.193 587.176ZM264.271 587.176C263.427 587.176 262.699 586.985 262.089 586.602C261.483 586.216 261.018 585.684 260.692 585.006C260.366 584.328 260.203 583.551 260.203 582.676C260.203 581.79 260.37 581.008 260.703 580.33C261.036 579.648 261.506 579.116 262.112 578.733C262.718 578.35 263.432 578.159 264.254 578.159C264.917 578.159 265.508 578.282 266.027 578.528C266.546 578.771 266.964 579.112 267.283 579.551C267.605 579.991 267.796 580.504 267.857 581.091H266.203C266.112 580.682 265.904 580.33 265.578 580.034C265.256 579.739 264.824 579.591 264.283 579.591C263.809 579.591 263.394 579.716 263.038 579.966C262.686 580.212 262.411 580.564 262.214 581.023C262.018 581.477 261.919 582.015 261.919 582.636C261.919 583.273 262.016 583.822 262.209 584.284C262.402 584.746 262.675 585.104 263.027 585.358C263.383 585.612 263.802 585.739 264.283 585.739C264.605 585.739 264.896 585.68 265.158 585.562C265.423 585.441 265.644 585.269 265.822 585.045C266.004 584.822 266.131 584.553 266.203 584.239H267.857C267.796 584.803 267.612 585.307 267.305 585.75C266.999 586.193 266.588 586.542 266.072 586.795C265.561 587.049 264.961 587.176 264.271 587.176ZM273.349 587.176C272.531 587.176 271.817 586.989 271.207 586.614C270.598 586.239 270.124 585.714 269.787 585.04C269.45 584.366 269.281 583.578 269.281 582.676C269.281 581.771 269.45 580.979 269.787 580.301C270.124 579.623 270.598 579.097 271.207 578.722C271.817 578.347 272.531 578.159 273.349 578.159C274.168 578.159 274.882 578.347 275.491 578.722C276.101 579.097 276.575 579.623 276.912 580.301C277.249 580.979 277.418 581.771 277.418 582.676C277.418 583.578 277.249 584.366 276.912 585.04C276.575 585.714 276.101 586.239 275.491 586.614C274.882 586.989 274.168 587.176 273.349 587.176ZM273.355 585.75C273.885 585.75 274.325 585.61 274.673 585.33C275.022 585.049 275.279 584.676 275.446 584.21C275.616 583.744 275.702 583.231 275.702 582.67C275.702 582.114 275.616 581.602 275.446 581.136C275.279 580.667 275.022 580.29 274.673 580.006C274.325 579.722 273.885 579.58 273.355 579.58C272.821 579.58 272.378 579.722 272.026 580.006C271.677 580.29 271.418 580.667 271.247 581.136C271.08 581.602 270.997 582.114 270.997 582.67C270.997 583.231 271.08 583.744 271.247 584.21C271.418 584.676 271.677 585.049 272.026 585.33C272.378 585.61 272.821 585.75 273.355 585.75ZM284.842 583.381V578.273H286.547V587H284.876V585.489H284.786C284.585 585.955 284.263 586.343 283.82 586.653C283.38 586.96 282.833 587.114 282.178 587.114C281.617 587.114 281.121 586.991 280.689 586.744C280.261 586.494 279.924 586.125 279.678 585.636C279.435 585.148 279.314 584.544 279.314 583.824V578.273H281.013V583.619C281.013 584.214 281.178 584.687 281.507 585.04C281.837 585.392 282.265 585.568 282.791 585.568C283.109 585.568 283.426 585.489 283.74 585.33C284.058 585.17 284.321 584.93 284.53 584.608C284.742 584.286 284.846 583.877 284.842 583.381ZM290.528 581.818V587H288.83V578.273H290.46V579.693H290.568C290.769 579.231 291.083 578.86 291.511 578.58C291.943 578.299 292.487 578.159 293.142 578.159C293.737 578.159 294.258 578.284 294.705 578.534C295.152 578.78 295.498 579.148 295.744 579.636C295.991 580.125 296.114 580.729 296.114 581.449V587H294.415V581.653C294.415 581.021 294.25 580.527 293.92 580.17C293.591 579.811 293.138 579.631 292.562 579.631C292.169 579.631 291.818 579.716 291.511 579.886C291.208 580.057 290.968 580.307 290.79 580.636C290.616 580.962 290.528 581.356 290.528 581.818ZM302.466 578.273V579.636H297.699V578.273H302.466ZM298.977 576.182H300.676V584.438C300.676 584.767 300.725 585.015 300.824 585.182C300.922 585.345 301.049 585.456 301.205 585.517C301.364 585.574 301.536 585.602 301.722 585.602C301.858 585.602 301.977 585.593 302.08 585.574C302.182 585.555 302.261 585.54 302.318 585.528L302.625 586.932C302.527 586.97 302.386 587.008 302.205 587.045C302.023 587.087 301.795 587.11 301.523 587.114C301.076 587.121 300.659 587.042 300.273 586.875C299.886 586.708 299.574 586.451 299.335 586.102C299.097 585.754 298.977 585.316 298.977 584.79V576.182Z" fill="#ACACAC"/>
<path d="M241.266 590.182H259.46V591.273H241.266V590.182ZM259.453 590.182H268.538V591.273H259.453V590.182ZM268.531 590.182H303.199V591.273H268.531V590.182Z" fill="#ACACAC"/>
<path fill-rule="evenodd" clip-rule="evenodd" d="M597.286 411V409C597.286 407.674 597.888 406.402 598.959 405.464C600.031 404.527 601.484 404 603 404C604.516 404 605.969 404.527 607.041 405.464C608.112 406.402 608.714 407.674 608.714 409V411C609.32 411 609.902 411.211 610.331 411.586C610.759 411.961 611 412.47 611 413V418C611 418.53 610.759 419.039 610.331 419.414C609.902 419.789 609.32 420 608.714 420H597.286C596.68 420 596.098 419.789 595.669 419.414C595.241 419.039 595 418.53 595 418V413C595 412.47 595.241 411.961 595.669 411.586C596.098 411.211 596.68 411 597.286 411ZM606.429 409V411H599.571V409C599.571 408.204 599.933 407.441 600.576 406.879C601.219 406.316 602.091 406 603 406C603.909 406 604.781 406.316 605.424 406.879C606.067 407.441 606.429 408.204 606.429 409Z" fill="#A39A9A"/>
<path fill-rule="evenodd" clip-rule="evenodd" d="M603 329.857C603.909 329.857 604.781 329.496 605.424 328.853C606.067 328.21 606.429 327.338 606.429 326.429C606.429 325.519 606.067 324.647 605.424 324.004C604.781 323.361 603.909 323 603 323C602.091 323 601.219 323.361 600.576 324.004C599.933 324.647 599.571 325.519 599.571 326.429C599.571 327.338 599.933 328.21 600.576 328.853C601.219 329.496 602.091 329.857 603 329.857ZM595 340.143C595 339.092 595.207 338.052 595.609 337.081C596.011 336.111 596.6 335.229 597.343 334.486C598.086 333.743 598.968 333.154 599.939 332.752C600.909 332.35 601.949 332.143 603 332.143C604.051 332.143 605.091 332.35 606.061 332.752C607.032 333.154 607.914 333.743 608.657 334.486C609.4 335.229 609.989 336.111 610.391 337.081C610.793 338.052 611 339.092 611 340.143H595Z" fill="#A39A9A"/>
<g filter="url(#filter3_d_8_30)">
<path d="M0 0H1377V84H0V0Z" fill="#272727"/>
</g>
<path d="M593.477 53V26.8182H608.665V28.9659H595.868V38.8224H607.859V40.9702H595.868V50.8523H608.92V53H593.477ZM614.852 53V26.8182H623.303C625.161 26.8182 626.712 27.1548 627.956 27.8281C629.209 28.4929 630.151 29.4176 630.781 30.6023C631.42 31.7784 631.74 33.1293 631.74 34.6548C631.74 36.1804 631.42 37.527 630.781 38.6946C630.151 39.8622 629.213 40.7741 627.969 41.4304C626.724 42.0866 625.182 42.4148 623.341 42.4148H616.143V40.2287H623.277C624.641 40.2287 625.774 40.0028 626.678 39.5511C627.589 39.0994 628.267 38.456 628.71 37.6207C629.162 36.7855 629.388 35.7969 629.388 34.6548C629.388 33.5128 629.162 32.5156 628.71 31.6634C628.259 30.8026 627.577 30.1378 626.665 29.669C625.761 29.2003 624.619 28.9659 623.239 28.9659H617.243V53H614.852ZM626.396 41.1875L632.839 53H630.078L623.699 41.1875H626.396ZM637.563 53V26.8182H646.013C647.871 26.8182 649.423 27.1761 650.667 27.892C651.92 28.5994 652.862 29.5625 653.492 30.7812C654.131 32 654.451 33.3722 654.451 34.8977C654.451 36.4233 654.136 37.7997 653.505 39.027C652.874 40.2457 651.937 41.2131 650.692 41.929C649.448 42.6364 647.901 42.9901 646.052 42.9901H639.404V40.8423H645.988C647.36 40.8423 648.498 40.5866 649.401 40.0753C650.305 39.5554 650.978 38.848 651.421 37.9531C651.873 37.0582 652.099 36.0398 652.099 34.8977C652.099 33.7557 651.873 32.7372 651.421 31.8423C650.978 30.9474 650.3 30.2443 649.388 29.733C648.485 29.2216 647.339 28.9659 645.95 28.9659H639.954V53H637.563ZM675.097 38.9631L670.112 39.2699C670.026 38.8437 669.843 38.4602 669.562 38.1193C669.281 37.7699 668.91 37.4929 668.45 37.2884C667.998 37.0753 667.457 36.9688 666.826 36.9688C665.982 36.9688 665.271 37.1477 664.691 37.5057C664.112 37.8551 663.822 38.3239 663.822 38.9119C663.822 39.3807 664.009 39.777 664.384 40.1009C664.759 40.4247 665.403 40.6847 666.315 40.8807L669.869 41.5966C671.778 41.9886 673.201 42.6193 674.138 43.4886C675.076 44.358 675.545 45.5 675.545 46.9148C675.545 48.2017 675.165 49.331 674.407 50.3026C673.657 51.2741 672.626 52.0327 671.313 52.5781C670.009 53.1151 668.505 53.3835 666.8 53.3835C664.201 53.3835 662.13 52.8423 660.587 51.7599C659.053 50.669 658.154 49.1861 657.89 47.3111L663.246 47.0298C663.408 47.8224 663.8 48.4276 664.423 48.8452C665.045 49.2543 665.842 49.4588 666.813 49.4588C667.768 49.4588 668.535 49.2756 669.114 48.9091C669.702 48.5341 670.001 48.0526 670.009 47.4645C670.001 46.9702 669.792 46.5653 669.383 46.25C668.974 45.9261 668.343 45.679 667.491 45.5085L664.09 44.831C662.173 44.4474 660.745 43.7827 659.808 42.8366C658.879 41.8906 658.414 40.6847 658.414 39.2188C658.414 37.9574 658.755 36.8707 659.437 35.9588C660.127 35.0469 661.094 34.3438 662.339 33.8494C663.592 33.3551 665.058 33.108 666.737 33.108C669.217 33.108 671.168 33.6321 672.592 34.6804C674.023 35.7287 674.859 37.1562 675.097 38.9631ZM682.336 60.3636C681.646 60.3636 680.998 60.3082 680.393 60.1974C679.797 60.0952 679.302 59.9631 678.91 59.8011L680.137 55.7358C680.777 55.9318 681.352 56.0384 681.863 56.0554C682.383 56.0724 682.831 55.9531 683.206 55.6974C683.589 55.4418 683.9 55.0071 684.139 54.3935L684.458 53.5625L677.414 33.3636H683.142L687.207 47.7841H687.412L691.515 33.3636H697.281L689.649 55.1222C689.282 56.179 688.784 57.0994 688.153 57.8835C687.531 58.6761 686.743 59.2855 685.788 59.7116C684.833 60.1463 683.683 60.3636 682.336 60.3636ZM716.406 38.9631L711.42 39.2699C711.335 38.8437 711.152 38.4602 710.87 38.1193C710.589 37.7699 710.218 37.4929 709.758 37.2884C709.306 37.0753 708.765 36.9688 708.135 36.9688C707.291 36.9688 706.579 37.1477 706 37.5057C705.42 37.8551 705.13 38.3239 705.13 38.9119C705.13 39.3807 705.318 39.777 705.693 40.1009C706.068 40.4247 706.711 40.6847 707.623 40.8807L711.177 41.5966C713.086 41.9886 714.51 42.6193 715.447 43.4886C716.385 44.358 716.853 45.5 716.853 46.9148C716.853 48.2017 716.474 49.331 715.716 50.3026C714.966 51.2741 713.934 52.0327 712.622 52.5781C711.318 53.1151 709.814 53.3835 708.109 53.3835C705.51 53.3835 703.439 52.8423 701.896 51.7599C700.362 50.669 699.463 49.1861 699.199 47.3111L704.555 47.0298C704.717 47.8224 705.109 48.4276 705.731 48.8452C706.353 49.2543 707.15 49.4588 708.122 49.4588C709.076 49.4588 709.843 49.2756 710.423 48.9091C711.011 48.5341 711.309 48.0526 711.318 47.4645C711.309 46.9702 711.1 46.5653 710.691 46.25C710.282 45.9261 709.652 45.679 708.799 45.5085L705.399 44.831C703.481 44.4474 702.054 43.7827 701.116 42.8366C700.187 41.8906 699.723 40.6847 699.723 39.2188C699.723 37.9574 700.064 36.8707 700.745 35.9588C701.436 35.0469 702.403 34.3438 703.647 33.8494C704.9 33.3551 706.366 33.108 708.045 33.108C710.525 33.108 712.477 33.6321 713.9 34.6804C715.332 35.7287 716.167 37.1562 716.406 38.9631ZM730.727 33.3636V37.4545H718.902V33.3636H730.727ZM721.587 28.6591H727.033V46.9659C727.033 47.4687 727.109 47.8608 727.263 48.142C727.416 48.4148 727.629 48.6065 727.902 48.7173C728.183 48.8281 728.507 48.8835 728.874 48.8835C729.129 48.8835 729.385 48.8622 729.641 48.8196C729.896 48.7685 730.092 48.7301 730.229 48.7045L731.085 52.7571C730.813 52.8423 730.429 52.9403 729.935 53.0511C729.44 53.1705 728.839 53.2429 728.132 53.2685C726.82 53.3196 725.669 53.1449 724.68 52.7443C723.7 52.3437 722.938 51.7216 722.392 50.8778C721.847 50.0341 721.578 48.9687 721.587 47.6818V28.6591ZM743.013 53.3835C740.993 53.3835 739.254 52.9744 737.797 52.1562C736.348 51.3295 735.232 50.1619 734.447 48.6534C733.663 47.1364 733.271 45.3423 733.271 43.2713C733.271 41.2514 733.663 39.4787 734.447 37.9531C735.232 36.4276 736.335 35.2386 737.759 34.3864C739.19 33.5341 740.869 33.108 742.795 33.108C744.091 33.108 745.297 33.3168 746.413 33.7344C747.538 34.1435 748.518 34.7614 749.354 35.5881C750.197 36.4148 750.854 37.4545 751.322 38.7074C751.791 39.9517 752.026 41.4091 752.026 43.0795V44.5753H735.445V41.2003H746.899C746.899 40.4162 746.729 39.7216 746.388 39.1165C746.047 38.5114 745.574 38.0384 744.969 37.6974C744.372 37.348 743.678 37.1733 742.885 37.1733C742.058 37.1733 741.325 37.3651 740.686 37.7486C740.055 38.1236 739.561 38.6307 739.203 39.2699C738.845 39.9006 738.662 40.6037 738.653 41.3793V44.5881C738.653 45.5597 738.832 46.3991 739.19 47.1065C739.557 47.8139 740.072 48.3594 740.737 48.7429C741.402 49.1264 742.19 49.3182 743.102 49.3182C743.707 49.3182 744.261 49.233 744.764 49.0625C745.267 48.892 745.697 48.6364 746.055 48.2955C746.413 47.9545 746.686 47.5369 746.874 47.0426L751.911 47.375C751.655 48.5852 751.131 49.642 750.338 50.5455C749.554 51.4403 748.54 52.1392 747.295 52.642C746.06 53.1364 744.632 53.3835 743.013 53.3835ZM755.58 53V33.3636H760.77V36.8281H761C761.409 35.6776 762.091 34.7699 763.045 34.1051C764 33.4403 765.142 33.108 766.472 33.108C767.818 33.108 768.964 33.4446 769.911 34.1179C770.857 34.7827 771.487 35.6861 771.803 36.8281H772.007C772.408 35.7031 773.132 34.804 774.18 34.1307C775.237 33.4489 776.486 33.108 777.926 33.108C779.759 33.108 781.246 33.6918 782.388 34.8594C783.538 36.0185 784.114 37.6634 784.114 39.794V53H778.68V40.8679C778.68 39.777 778.391 38.9588 777.811 38.4134C777.232 37.8679 776.507 37.5952 775.638 37.5952C774.649 37.5952 773.878 37.9105 773.324 38.5412C772.77 39.1634 772.493 39.9858 772.493 41.0085V53H767.213V40.7528C767.213 39.7898 766.936 39.0227 766.382 38.4517C765.837 37.8807 765.116 37.5952 764.222 37.5952C763.616 37.5952 763.071 37.7486 762.585 38.0554C762.108 38.3537 761.729 38.7756 761.447 39.321C761.166 39.858 761.026 40.4886 761.026 41.2131V53H755.58Z" fill="white"/>
<path d="M787.068 395V325.182H834.114V337.352H801.83V353.989H831.693V366.159H801.83V382.83H834.25V395H787.068ZM845.849 395V325.182H873.395C878.668 325.182 883.168 326.125 886.895 328.011C890.645 329.875 893.497 332.523 895.452 335.955C897.429 339.364 898.418 343.375 898.418 347.989C898.418 352.625 897.418 356.614 895.418 359.955C893.418 363.273 890.52 365.818 886.724 367.591C882.952 369.364 878.384 370.25 873.02 370.25H854.577V358.386H870.634C873.452 358.386 875.793 358 877.656 357.227C879.52 356.455 880.906 355.295 881.815 353.75C882.747 352.205 883.213 350.284 883.213 347.989C883.213 345.67 882.747 343.716 881.815 342.125C880.906 340.534 879.509 339.33 877.622 338.511C875.759 337.67 873.406 337.25 870.565 337.25H860.611V395H845.849ZM883.554 363.227L900.906 395H884.611L867.634 363.227H883.554ZM908.849 395V325.182H936.395C941.69 325.182 946.202 326.193 949.929 328.216C953.656 330.216 956.497 333 958.452 336.568C960.429 340.114 961.418 344.205 961.418 348.841C961.418 353.477 960.418 357.568 958.418 361.114C956.418 364.659 953.52 367.42 949.724 369.398C945.952 371.375 941.384 372.364 936.02 372.364H918.463V360.534H933.634C936.474 360.534 938.815 360.045 940.656 359.068C942.52 358.068 943.906 356.693 944.815 354.943C945.747 353.17 946.213 351.136 946.213 348.841C946.213 346.523 945.747 344.5 944.815 342.773C943.906 341.023 942.52 339.67 940.656 338.716C938.793 337.739 936.429 337.25 933.565 337.25H923.611V395H908.849ZM1008.88 345.261C1008.61 342.511 1007.44 340.375 1005.37 338.852C1003.3 337.33 1000.49 336.568 996.949 336.568C994.54 336.568 992.506 336.909 990.847 337.591C989.188 338.25 987.915 339.17 987.028 340.352C986.165 341.534 985.733 342.875 985.733 344.375C985.688 345.625 985.949 346.716 986.517 347.648C987.108 348.58 987.915 349.386 988.938 350.068C989.96 350.727 991.142 351.307 992.483 351.807C993.824 352.284 995.256 352.693 996.778 353.034L1003.05 354.534C1006.1 355.216 1008.89 356.125 1011.44 357.261C1013.98 358.398 1016.19 359.795 1018.05 361.455C1019.91 363.114 1021.36 365.068 1022.38 367.318C1023.43 369.568 1023.96 372.148 1023.98 375.057C1023.96 379.33 1022.87 383.034 1020.71 386.17C1018.57 389.284 1015.48 391.705 1011.44 393.432C1007.41 395.136 1002.56 395.989 996.881 395.989C991.244 395.989 986.335 395.125 982.153 393.398C977.994 391.67 974.744 389.114 972.403 385.727C970.085 382.318 968.869 378.102 968.756 373.08H983.04C983.199 375.42 983.869 377.375 985.051 378.943C986.256 380.489 987.858 381.659 989.858 382.455C991.881 383.227 994.165 383.614 996.71 383.614C999.21 383.614 1001.38 383.25 1003.22 382.523C1005.09 381.795 1006.53 380.784 1007.55 379.489C1008.57 378.193 1009.09 376.705 1009.09 375.023C1009.09 373.455 1008.62 372.136 1007.69 371.068C1006.78 370 1005.44 369.091 1003.66 368.341C1001.91 367.591 999.767 366.909 997.222 366.295L989.619 364.386C983.733 362.955 979.085 360.716 975.676 357.67C972.267 354.625 970.574 350.523 970.597 345.364C970.574 341.136 971.699 337.443 973.972 334.284C976.267 331.125 979.415 328.659 983.415 326.886C987.415 325.114 991.96 324.227 997.051 324.227C1002.23 324.227 1006.76 325.114 1010.62 326.886C1014.51 328.659 1017.53 331.125 1019.69 334.284C1021.85 337.443 1022.96 341.102 1023.03 345.261H1008.88ZM1042.61 414.636C1040.76 414.636 1039.04 414.489 1037.42 414.193C1035.83 413.92 1034.51 413.568 1033.47 413.136L1036.74 402.295C1038.45 402.818 1039.98 403.102 1041.34 403.148C1042.73 403.193 1043.92 402.875 1044.92 402.193C1045.95 401.511 1046.78 400.352 1047.41 398.716L1048.26 396.5L1029.48 342.636H1044.75L1055.59 381.091H1056.14L1067.08 342.636H1082.46L1062.11 400.659C1061.13 403.477 1059.8 405.932 1058.12 408.023C1056.46 410.136 1054.36 411.761 1051.81 412.898C1049.26 414.057 1046.2 414.636 1042.61 414.636ZM1133.46 357.568L1120.16 358.386C1119.93 357.25 1119.45 356.227 1118.7 355.318C1117.95 354.386 1116.96 353.648 1115.73 353.102C1114.53 352.534 1113.08 352.25 1111.4 352.25C1109.15 352.25 1107.25 352.727 1105.71 353.682C1104.16 354.614 1103.39 355.864 1103.39 357.432C1103.39 358.682 1103.89 359.739 1104.89 360.602C1105.89 361.466 1107.61 362.159 1110.04 362.682L1119.51 364.591C1124.61 365.636 1128.4 367.318 1130.9 369.636C1133.4 371.955 1134.65 375 1134.65 378.773C1134.65 382.205 1133.64 385.216 1131.62 387.807C1129.62 390.398 1126.87 392.42 1123.37 393.875C1119.89 395.307 1115.88 396.023 1111.33 396.023C1104.4 396.023 1098.88 394.58 1094.76 391.693C1090.67 388.784 1088.28 384.83 1087.57 379.83L1101.86 379.08C1102.29 381.193 1103.33 382.807 1104.99 383.92C1106.65 385.011 1108.78 385.557 1111.37 385.557C1113.91 385.557 1115.96 385.068 1117.5 384.091C1119.07 383.091 1119.87 381.807 1119.89 380.239C1119.87 378.92 1119.31 377.841 1118.22 377C1117.13 376.136 1115.45 375.477 1113.17 375.023L1104.11 373.216C1098.99 372.193 1095.18 370.42 1092.68 367.898C1090.21 365.375 1088.97 362.159 1088.97 358.25C1088.97 354.886 1089.88 351.989 1091.7 349.557C1093.54 347.125 1096.12 345.25 1099.43 343.932C1102.78 342.614 1106.68 341.955 1111.16 341.955C1117.78 341.955 1122.98 343.352 1126.78 346.148C1130.59 348.943 1132.82 352.75 1133.46 357.568ZM1171.65 342.636V353.545H1140.11V342.636H1171.65ZM1147.27 330.091H1161.8V378.909C1161.8 380.25 1162 381.295 1162.41 382.045C1162.82 382.773 1163.39 383.284 1164.11 383.58C1164.86 383.875 1165.73 384.023 1166.7 384.023C1167.39 384.023 1168.07 383.966 1168.75 383.852C1169.43 383.716 1169.95 383.614 1170.32 383.545L1172.6 394.352C1171.88 394.58 1170.85 394.841 1169.53 395.136C1168.22 395.455 1166.61 395.648 1164.73 395.716C1161.23 395.852 1158.16 395.386 1155.52 394.318C1152.91 393.25 1150.88 391.591 1149.42 389.341C1147.97 387.091 1147.25 384.25 1147.27 380.818V330.091ZM1204.41 396.023C1199.02 396.023 1194.39 394.932 1190.5 392.75C1186.64 390.545 1183.66 387.432 1181.57 383.409C1179.48 379.364 1178.43 374.58 1178.43 369.057C1178.43 363.67 1179.48 358.943 1181.57 354.875C1183.66 350.807 1186.6 347.636 1190.4 345.364C1194.22 343.091 1198.69 341.955 1203.83 341.955C1207.28 341.955 1210.5 342.511 1213.48 343.625C1216.48 344.716 1219.09 346.364 1221.32 348.568C1223.57 350.773 1225.32 353.545 1226.57 356.886C1227.82 360.205 1228.44 364.091 1228.44 368.545V372.534H1184.23V363.534H1214.77C1214.77 361.443 1214.32 359.591 1213.41 357.977C1212.5 356.364 1211.24 355.102 1209.62 354.193C1208.03 353.261 1206.18 352.795 1204.07 352.795C1201.86 352.795 1199.91 353.307 1198.2 354.33C1196.52 355.33 1195.2 356.682 1194.25 358.386C1193.3 360.068 1192.81 361.943 1192.78 364.011V372.568C1192.78 375.159 1193.26 377.398 1194.22 379.284C1195.19 381.17 1196.57 382.625 1198.34 383.648C1200.11 384.67 1202.22 385.182 1204.65 385.182C1206.26 385.182 1207.74 384.955 1209.08 384.5C1210.42 384.045 1211.57 383.364 1212.52 382.455C1213.48 381.545 1214.2 380.432 1214.7 379.114L1228.14 380C1227.45 383.227 1226.06 386.045 1223.94 388.455C1221.85 390.841 1219.15 392.705 1215.83 394.045C1212.53 395.364 1208.73 396.023 1204.41 396.023ZM1237.92 395V342.636H1251.76V351.875H1252.38C1253.47 348.807 1255.28 346.386 1257.83 344.614C1260.38 342.841 1263.42 341.955 1266.97 341.955C1270.56 341.955 1273.61 342.852 1276.14 344.648C1278.66 346.42 1280.34 348.83 1281.18 351.875H1281.73C1282.8 348.875 1284.73 346.477 1287.52 344.682C1290.34 342.864 1293.67 341.955 1297.51 341.955C1302.4 341.955 1306.36 343.511 1309.41 346.625C1312.48 349.716 1314.01 354.102 1314.01 359.784V395H1299.52V362.648C1299.52 359.739 1298.75 357.557 1297.2 356.102C1295.66 354.648 1293.73 353.92 1291.41 353.92C1288.77 353.92 1286.72 354.761 1285.24 356.443C1283.76 358.102 1283.02 360.295 1283.02 363.023V395H1268.94V362.341C1268.94 359.773 1268.2 357.727 1266.73 356.205C1265.27 354.682 1263.35 353.92 1260.97 353.92C1259.35 353.92 1257.9 354.33 1256.6 355.148C1255.33 355.943 1254.32 357.068 1253.57 358.523C1252.82 359.955 1252.44 361.636 1252.44 363.568V395H1237.92Z" fill="url(#paint3_linear_8_30)"/>
<path d="M788.517 430.545H793.068L797.875 442.273H798.08L802.886 430.545H807.438V448H803.858V436.639H803.713L799.196 447.915H796.759L792.241 436.597H792.097V448H788.517V430.545ZM814.143 448.247C813.308 448.247 812.563 448.102 811.91 447.812C811.256 447.517 810.739 447.082 810.359 446.509C809.984 445.929 809.796 445.207 809.796 444.344C809.796 443.616 809.93 443.006 810.197 442.511C810.464 442.017 810.827 441.619 811.288 441.318C811.748 441.017 812.271 440.79 812.856 440.636C813.447 440.483 814.066 440.375 814.714 440.312C815.475 440.233 816.089 440.159 816.555 440.091C817.021 440.017 817.359 439.909 817.569 439.767C817.779 439.625 817.884 439.415 817.884 439.136V439.085C817.884 438.545 817.714 438.128 817.373 437.832C817.038 437.537 816.56 437.389 815.941 437.389C815.288 437.389 814.768 437.534 814.381 437.824C813.995 438.108 813.739 438.466 813.614 438.898L810.256 438.625C810.427 437.83 810.762 437.142 811.262 436.562C811.762 435.977 812.407 435.528 813.197 435.216C813.992 434.898 814.913 434.739 815.958 434.739C816.685 434.739 817.381 434.824 818.046 434.994C818.717 435.165 819.31 435.429 819.827 435.787C820.35 436.145 820.762 436.605 821.063 437.168C821.364 437.724 821.515 438.392 821.515 439.17V448H818.072V446.185H817.969C817.759 446.594 817.478 446.955 817.126 447.267C816.773 447.574 816.35 447.815 815.856 447.991C815.362 448.162 814.79 448.247 814.143 448.247ZM815.183 445.741C815.717 445.741 816.188 445.636 816.597 445.426C817.006 445.21 817.327 444.92 817.56 444.557C817.793 444.193 817.91 443.781 817.91 443.321V441.932C817.796 442.006 817.64 442.074 817.441 442.136C817.248 442.193 817.029 442.247 816.785 442.298C816.54 442.344 816.296 442.386 816.052 442.426C815.808 442.46 815.586 442.491 815.387 442.52C814.961 442.582 814.589 442.682 814.271 442.818C813.952 442.955 813.705 443.139 813.529 443.372C813.353 443.599 813.265 443.884 813.265 444.224C813.265 444.719 813.444 445.097 813.802 445.358C814.165 445.614 814.626 445.741 815.183 445.741ZM827.962 440.432V448H824.332V434.909H827.792V437.219H827.945C828.235 436.457 828.721 435.855 829.403 435.412C830.085 434.963 830.911 434.739 831.883 434.739C832.792 434.739 833.585 434.938 834.261 435.335C834.937 435.733 835.462 436.301 835.837 437.04C836.212 437.773 836.4 438.648 836.4 439.665V448H832.769V440.312C832.775 439.511 832.57 438.886 832.156 438.438C831.741 437.983 831.17 437.756 830.442 437.756C829.954 437.756 829.522 437.861 829.147 438.071C828.778 438.281 828.488 438.588 828.278 438.991C828.073 439.389 827.968 439.869 827.962 440.432ZM845.159 453.182C843.983 453.182 842.974 453.02 842.134 452.696C841.298 452.378 840.634 451.943 840.139 451.392C839.645 450.841 839.324 450.222 839.176 449.534L842.534 449.082C842.636 449.344 842.798 449.588 843.02 449.815C843.241 450.043 843.534 450.224 843.898 450.361C844.267 450.503 844.716 450.574 845.244 450.574C846.034 450.574 846.685 450.381 847.196 449.994C847.713 449.614 847.972 448.974 847.972 448.077V445.682H847.818C847.659 446.045 847.42 446.389 847.102 446.713C846.784 447.037 846.375 447.301 845.875 447.506C845.375 447.71 844.778 447.812 844.085 447.812C843.102 447.812 842.207 447.585 841.401 447.131C840.599 446.67 839.96 445.969 839.483 445.026C839.011 444.077 838.776 442.878 838.776 441.429C838.776 439.946 839.017 438.707 839.5 437.713C839.983 436.719 840.625 435.974 841.426 435.48C842.233 434.986 843.116 434.739 844.077 434.739C844.81 434.739 845.423 434.864 845.918 435.114C846.412 435.358 846.81 435.665 847.111 436.034C847.418 436.398 847.653 436.756 847.818 437.108H847.955V434.909H851.56V448.128C851.56 449.241 851.287 450.173 850.741 450.923C850.196 451.673 849.44 452.236 848.474 452.611C847.514 452.991 846.409 453.182 845.159 453.182ZM845.236 445.085C845.821 445.085 846.315 444.94 846.719 444.651C847.128 444.355 847.44 443.935 847.656 443.389C847.878 442.838 847.989 442.179 847.989 441.412C847.989 440.645 847.881 439.98 847.665 439.418C847.449 438.849 847.136 438.409 846.727 438.097C846.318 437.784 845.821 437.628 845.236 437.628C844.639 437.628 844.136 437.79 843.727 438.114C843.318 438.432 843.009 438.875 842.798 439.443C842.588 440.011 842.483 440.668 842.483 441.412C842.483 442.168 842.588 442.821 842.798 443.372C843.014 443.918 843.324 444.341 843.727 444.642C844.136 444.937 844.639 445.085 845.236 445.085ZM860.415 448.256C859.068 448.256 857.909 447.983 856.938 447.438C855.972 446.886 855.227 446.108 854.705 445.102C854.182 444.091 853.92 442.895 853.92 441.514C853.92 440.168 854.182 438.986 854.705 437.969C855.227 436.952 855.963 436.159 856.912 435.591C857.866 435.023 858.986 434.739 860.27 434.739C861.134 434.739 861.938 434.878 862.682 435.156C863.432 435.429 864.085 435.841 864.642 436.392C865.205 436.943 865.642 437.636 865.955 438.472C866.267 439.301 866.423 440.273 866.423 441.386V442.384H855.369V440.134H863.006C863.006 439.611 862.892 439.148 862.665 438.744C862.438 438.341 862.122 438.026 861.719 437.798C861.321 437.565 860.858 437.449 860.33 437.449C859.778 437.449 859.29 437.577 858.864 437.832C858.443 438.082 858.114 438.42 857.875 438.847C857.636 439.267 857.514 439.736 857.509 440.253V442.392C857.509 443.04 857.628 443.599 857.866 444.071C858.111 444.543 858.455 444.906 858.898 445.162C859.341 445.418 859.866 445.545 860.474 445.545C860.878 445.545 861.247 445.489 861.582 445.375C861.918 445.261 862.205 445.091 862.443 444.864C862.682 444.636 862.864 444.358 862.989 444.028L866.347 444.25C866.176 445.057 865.827 445.761 865.298 446.364C864.776 446.96 864.099 447.426 863.27 447.761C862.446 448.091 861.494 448.256 860.415 448.256ZM868.793 448V434.909H872.312V437.193H872.449C872.688 436.381 873.088 435.767 873.651 435.352C874.213 434.932 874.861 434.722 875.594 434.722C875.776 434.722 875.972 434.733 876.182 434.756C876.392 434.778 876.577 434.81 876.736 434.849V438.071C876.565 438.02 876.33 437.974 876.028 437.935C875.727 437.895 875.452 437.875 875.202 437.875C874.668 437.875 874.19 437.991 873.77 438.224C873.355 438.452 873.026 438.77 872.781 439.179C872.543 439.588 872.423 440.06 872.423 440.594V448H868.793ZM884.236 448V430.545H895.997V433.588H887.926V437.747H895.392V440.79H887.926V444.957H896.031V448H884.236ZM911.067 434.909L906.491 448H902.4L897.823 434.909H901.658L904.377 444.276H904.513L907.224 434.909H911.067ZM918.469 448.256C917.123 448.256 915.964 447.983 914.992 447.438C914.026 446.886 913.282 446.108 912.759 445.102C912.237 444.091 911.975 442.895 911.975 441.514C911.975 440.168 912.237 438.986 912.759 437.969C913.282 436.952 914.018 436.159 914.967 435.591C915.921 435.023 917.04 434.739 918.325 434.739C919.188 434.739 919.992 434.878 920.737 435.156C921.487 435.429 922.14 435.841 922.697 436.392C923.259 436.943 923.697 437.636 924.009 438.472C924.322 439.301 924.478 440.273 924.478 441.386V442.384H913.424V440.134H921.06C921.06 439.611 920.947 439.148 920.719 438.744C920.492 438.341 920.177 438.026 919.773 437.798C919.376 437.565 918.913 437.449 918.384 437.449C917.833 437.449 917.344 437.577 916.918 437.832C916.498 438.082 916.168 438.42 915.93 438.847C915.691 439.267 915.569 439.736 915.563 440.253V442.392C915.563 443.04 915.683 443.599 915.921 444.071C916.165 444.543 916.509 444.906 916.952 445.162C917.396 445.418 917.921 445.545 918.529 445.545C918.933 445.545 919.302 445.489 919.637 445.375C919.972 445.261 920.259 445.091 920.498 444.864C920.737 444.636 920.918 444.358 921.043 444.028L924.401 444.25C924.231 445.057 923.881 445.761 923.353 446.364C922.83 446.96 922.154 447.426 921.325 447.761C920.501 448.091 919.549 448.256 918.469 448.256ZM926.847 448V434.909H930.367V437.193H930.504C930.742 436.381 931.143 435.767 931.705 435.352C932.268 434.932 932.915 434.722 933.648 434.722C933.83 434.722 934.026 434.733 934.237 434.756C934.447 434.778 934.631 434.81 934.79 434.849V438.071C934.62 438.02 934.384 437.974 934.083 437.935C933.782 437.895 933.506 437.875 933.256 437.875C932.722 437.875 932.245 437.991 931.825 438.224C931.41 438.452 931.08 438.77 930.836 439.179C930.597 439.588 930.478 440.06 930.478 440.594V448H926.847ZM939.308 452.909C938.847 452.909 938.415 452.872 938.012 452.798C937.614 452.73 937.285 452.642 937.023 452.534L937.842 449.824C938.268 449.955 938.651 450.026 938.992 450.037C939.339 450.048 939.637 449.969 939.887 449.798C940.143 449.628 940.35 449.338 940.509 448.929L940.722 448.375L936.026 434.909H939.844L942.555 444.523H942.691L945.427 434.909H949.271L944.183 449.415C943.938 450.119 943.606 450.733 943.185 451.256C942.771 451.784 942.245 452.19 941.609 452.474C940.972 452.764 940.205 452.909 939.308 452.909ZM958.092 434.909V437.636H950.208V434.909H958.092ZM951.998 431.773H955.629V443.977C955.629 444.312 955.68 444.574 955.782 444.761C955.884 444.943 956.026 445.071 956.208 445.145C956.396 445.219 956.612 445.256 956.856 445.256C957.026 445.256 957.197 445.241 957.367 445.213C957.538 445.179 957.668 445.153 957.759 445.136L958.33 447.838C958.148 447.895 957.893 447.96 957.563 448.034C957.234 448.114 956.833 448.162 956.362 448.179C955.487 448.213 954.719 448.097 954.06 447.83C953.407 447.562 952.898 447.148 952.535 446.585C952.171 446.023 951.992 445.312 951.998 444.455V431.773ZM964.369 440.432V448H960.738V430.545H964.266V437.219H964.42C964.715 436.446 965.192 435.841 965.852 435.403C966.511 434.96 967.337 434.739 968.332 434.739C969.241 434.739 970.033 434.938 970.71 435.335C971.391 435.727 971.92 436.293 972.295 437.031C972.675 437.764 972.863 438.642 972.857 439.665V448H969.227V440.312C969.232 439.506 969.028 438.878 968.613 438.429C968.204 437.98 967.63 437.756 966.891 437.756C966.397 437.756 965.96 437.861 965.579 438.071C965.204 438.281 964.908 438.588 964.692 438.991C964.482 439.389 964.374 439.869 964.369 440.432ZM975.714 448V434.909H979.345V448H975.714ZM977.538 433.222C976.999 433.222 976.536 433.043 976.149 432.685C975.768 432.321 975.578 431.886 975.578 431.381C975.578 430.881 975.768 430.452 976.149 430.094C976.536 429.73 976.999 429.548 977.538 429.548C978.078 429.548 978.538 429.73 978.919 430.094C979.305 430.452 979.499 430.881 979.499 431.381C979.499 431.886 979.305 432.321 978.919 432.685C978.538 433.043 978.078 433.222 977.538 433.222ZM985.884 440.432V448H982.254V434.909H985.714V437.219H985.867C986.157 436.457 986.643 435.855 987.325 435.412C988.006 434.963 988.833 434.739 989.805 434.739C990.714 434.739 991.506 434.938 992.183 435.335C992.859 435.733 993.384 436.301 993.759 437.04C994.134 437.773 994.322 438.648 994.322 439.665V448H990.691V440.312C990.697 439.511 990.492 438.886 990.077 438.438C989.663 437.983 989.092 437.756 988.364 437.756C987.876 437.756 987.444 437.861 987.069 438.071C986.7 438.281 986.41 438.588 986.2 438.991C985.995 439.389 985.89 439.869 985.884 440.432ZM1003.08 453.182C1001.9 453.182 1000.9 453.02 1000.06 452.696C999.22 452.378 998.555 451.943 998.061 451.392C997.567 450.841 997.246 450.222 997.098 449.534L1000.46 449.082C1000.56 449.344 1000.72 449.588 1000.94 449.815C1001.16 450.043 1001.46 450.224 1001.82 450.361C1002.19 450.503 1002.64 450.574 1003.17 450.574C1003.96 450.574 1004.61 450.381 1005.12 449.994C1005.63 449.614 1005.89 448.974 1005.89 448.077V445.682H1005.74C1005.58 446.045 1005.34 446.389 1005.02 446.713C1004.71 447.037 1004.3 447.301 1003.8 447.506C1003.3 447.71 1002.7 447.812 1002.01 447.812C1001.02 447.812 1000.13 447.585 999.322 447.131C998.521 446.67 997.882 445.969 997.405 445.026C996.933 444.077 996.697 442.878 996.697 441.429C996.697 439.946 996.939 438.707 997.422 437.713C997.905 436.719 998.547 435.974 999.348 435.48C1000.15 434.986 1001.04 434.739 1002 434.739C1002.73 434.739 1003.35 434.864 1003.84 435.114C1004.33 435.358 1004.73 435.665 1005.03 436.034C1005.34 436.398 1005.58 436.756 1005.74 437.108H1005.88V434.909H1009.48V448.128C1009.48 449.241 1009.21 450.173 1008.66 450.923C1008.12 451.673 1007.36 452.236 1006.4 452.611C1005.44 452.991 1004.33 453.182 1003.08 453.182ZM1003.16 445.085C1003.74 445.085 1004.24 444.94 1004.64 444.651C1005.05 444.355 1005.36 443.935 1005.58 443.389C1005.8 442.838 1005.91 442.179 1005.91 441.412C1005.91 440.645 1005.8 439.98 1005.59 439.418C1005.37 438.849 1005.06 438.409 1004.65 438.097C1004.24 437.784 1003.74 437.628 1003.16 437.628C1002.56 437.628 1002.06 437.79 1001.65 438.114C1001.24 438.432 1000.93 438.875 1000.72 439.443C1000.51 440.011 1000.4 440.668 1000.4 441.412C1000.4 442.168 1000.51 442.821 1000.72 443.372C1000.94 443.918 1001.25 444.341 1001.65 444.642C1002.06 444.937 1002.56 445.085 1003.16 445.085ZM1017.99 448V430.545H1029.55V433.588H1021.68V437.747H1028.78V440.79H1021.68V448H1017.99ZM1031.75 448V434.909H1035.27V437.193H1035.41C1035.65 436.381 1036.05 435.767 1036.61 435.352C1037.17 434.932 1037.82 434.722 1038.55 434.722C1038.74 434.722 1038.93 434.733 1039.14 434.756C1039.35 434.778 1039.54 434.81 1039.7 434.849V438.071C1039.53 438.02 1039.29 437.974 1038.99 437.935C1038.69 437.895 1038.41 437.875 1038.16 437.875C1037.63 437.875 1037.15 437.991 1036.73 438.224C1036.32 438.452 1035.99 438.77 1035.74 439.179C1035.5 439.588 1035.38 440.06 1035.38 440.594V448H1031.75ZM1046.88 448.256C1045.56 448.256 1044.41 447.974 1043.44 447.412C1042.48 446.844 1041.74 446.054 1041.22 445.043C1040.7 444.026 1040.44 442.847 1040.44 441.506C1040.44 440.153 1040.7 438.972 1041.22 437.96C1041.74 436.943 1042.48 436.153 1043.44 435.591C1044.41 435.023 1045.56 434.739 1046.88 434.739C1048.2 434.739 1049.35 435.023 1050.31 435.591C1051.27 436.153 1052.02 436.943 1052.54 437.96C1053.06 438.972 1053.32 440.153 1053.32 441.506C1053.32 442.847 1053.06 444.026 1052.54 445.043C1052.02 446.054 1051.27 446.844 1050.31 447.412C1049.35 447.974 1048.2 448.256 1046.88 448.256ZM1046.9 445.443C1047.5 445.443 1048 445.273 1048.4 444.932C1048.81 444.585 1049.11 444.114 1049.32 443.517C1049.53 442.92 1049.63 442.241 1049.63 441.48C1049.63 440.719 1049.53 440.04 1049.32 439.443C1049.11 438.847 1048.81 438.375 1048.4 438.028C1048 437.682 1047.5 437.509 1046.9 437.509C1046.29 437.509 1045.78 437.682 1045.36 438.028C1044.95 438.375 1044.64 438.847 1044.43 439.443C1044.23 440.04 1044.13 440.719 1044.13 441.48C1044.13 442.241 1044.23 442.92 1044.43 443.517C1044.64 444.114 1044.95 444.585 1045.36 444.932C1045.78 445.273 1046.29 445.443 1046.9 445.443ZM1055.68 448V434.909H1059.14V437.219H1059.3C1059.57 436.452 1060.02 435.847 1060.66 435.403C1061.3 434.96 1062.06 434.739 1062.94 434.739C1063.84 434.739 1064.61 434.963 1065.24 435.412C1065.87 435.855 1066.29 436.457 1066.5 437.219H1066.63C1066.9 436.469 1067.38 435.869 1068.08 435.42C1068.79 434.966 1069.62 434.739 1070.58 434.739C1071.8 434.739 1072.79 435.128 1073.56 435.906C1074.32 436.679 1074.71 437.776 1074.71 439.196V448H1071.08V439.912C1071.08 439.185 1070.89 438.639 1070.5 438.276C1070.12 437.912 1069.63 437.73 1069.06 437.73C1068.4 437.73 1067.88 437.94 1067.51 438.361C1067.14 438.776 1066.96 439.324 1066.96 440.006V448H1063.44V439.835C1063.44 439.193 1063.25 438.682 1062.88 438.301C1062.52 437.92 1062.04 437.73 1061.44 437.73C1061.04 437.73 1060.68 437.832 1060.35 438.037C1060.04 438.236 1059.78 438.517 1059.6 438.881C1059.41 439.239 1059.31 439.659 1059.31 440.142V448H1055.68ZM1099.24 439.273C1099.24 441.176 1098.88 442.795 1098.15 444.131C1097.44 445.466 1096.46 446.486 1095.22 447.19C1093.99 447.889 1092.6 448.239 1091.06 448.239C1089.51 448.239 1088.12 447.886 1086.89 447.182C1085.65 446.477 1084.68 445.457 1083.96 444.122C1083.25 442.787 1082.89 441.17 1082.89 439.273C1082.89 437.369 1083.25 435.75 1083.96 434.415C1084.68 433.08 1085.65 432.062 1086.89 431.364C1088.12 430.659 1089.51 430.307 1091.06 430.307C1092.6 430.307 1093.99 430.659 1095.22 431.364C1096.46 432.062 1097.44 433.08 1098.15 434.415C1098.88 435.75 1099.24 437.369 1099.24 439.273ZM1095.5 439.273C1095.5 438.04 1095.31 437 1094.94 436.153C1094.58 435.307 1094.06 434.665 1093.4 434.227C1092.73 433.79 1091.96 433.571 1091.06 433.571C1090.17 433.571 1089.39 433.79 1088.73 434.227C1088.06 434.665 1087.55 435.307 1087.18 436.153C1086.81 437 1086.63 438.04 1086.63 439.273C1086.63 440.506 1086.81 441.545 1087.18 442.392C1087.55 443.239 1088.06 443.881 1088.73 444.318C1089.39 444.756 1090.17 444.974 1091.06 444.974C1091.96 444.974 1092.73 444.756 1093.4 444.318C1094.06 443.881 1094.58 443.239 1094.94 442.392C1095.31 441.545 1095.5 440.506 1095.5 439.273ZM1105.53 440.432V448H1101.9V434.909H1105.36V437.219H1105.52C1105.81 436.457 1106.29 435.855 1106.97 435.412C1107.65 434.963 1108.48 434.739 1109.45 434.739C1110.36 434.739 1111.15 434.938 1111.83 435.335C1112.51 435.733 1113.03 436.301 1113.41 437.04C1113.78 437.773 1113.97 438.648 1113.97 439.665V448H1110.34V440.312C1110.35 439.511 1110.14 438.886 1109.73 438.438C1109.31 437.983 1108.74 437.756 1108.01 437.756C1107.52 437.756 1107.09 437.861 1106.72 438.071C1106.35 438.281 1106.06 438.588 1105.85 438.991C1105.64 439.389 1105.54 439.869 1105.53 440.432ZM1122.8 448.256C1121.45 448.256 1120.29 447.983 1119.32 447.438C1118.35 446.886 1117.61 446.108 1117.09 445.102C1116.56 444.091 1116.3 442.895 1116.3 441.514C1116.3 440.168 1116.56 438.986 1117.09 437.969C1117.61 436.952 1118.35 436.159 1119.29 435.591C1120.25 435.023 1121.37 434.739 1122.65 434.739C1123.52 434.739 1124.32 434.878 1125.06 435.156C1125.81 435.429 1126.47 435.841 1127.02 436.392C1127.59 436.943 1128.02 437.636 1128.34 438.472C1128.65 439.301 1128.81 440.273 1128.81 441.386V442.384H1117.75V440.134H1125.39C1125.39 439.611 1125.27 439.148 1125.05 438.744C1124.82 438.341 1124.5 438.026 1124.1 437.798C1123.7 437.565 1123.24 437.449 1122.71 437.449C1122.16 437.449 1121.67 437.577 1121.25 437.832C1120.83 438.082 1120.5 438.42 1120.26 438.847C1120.02 439.267 1119.9 439.736 1119.89 440.253V442.392C1119.89 443.04 1120.01 443.599 1120.25 444.071C1120.49 444.543 1120.84 444.906 1121.28 445.162C1121.72 445.418 1122.25 445.545 1122.86 445.545C1123.26 445.545 1123.63 445.489 1123.97 445.375C1124.3 445.261 1124.59 445.091 1124.83 444.864C1125.06 444.636 1125.25 444.358 1125.37 444.028L1128.73 444.25C1128.56 445.057 1128.21 445.761 1127.68 446.364C1127.16 446.96 1126.48 447.426 1125.65 447.761C1124.83 448.091 1123.88 448.256 1122.8 448.256ZM1136.8 448V430.545H1143.68C1145.01 430.545 1146.14 430.798 1147.07 431.304C1148 431.804 1148.71 432.5 1149.2 433.392C1149.69 434.278 1149.94 435.301 1149.94 436.46C1149.94 437.619 1149.69 438.642 1149.19 439.528C1148.69 440.415 1147.97 441.105 1147.02 441.599C1146.07 442.094 1144.93 442.341 1143.59 442.341H1139.2V439.384H1142.99C1143.7 439.384 1144.29 439.261 1144.75 439.017C1145.22 438.767 1145.56 438.423 1145.79 437.986C1146.02 437.543 1146.14 437.034 1146.14 436.46C1146.14 435.881 1146.02 435.375 1145.79 434.943C1145.56 434.506 1145.22 434.168 1144.75 433.929C1144.28 433.685 1143.69 433.562 1142.98 433.562H1140.49V448H1136.8ZM1155.9 430.545V448H1152.27V430.545H1155.9ZM1162.54 448.247C1161.71 448.247 1160.96 448.102 1160.31 447.812C1159.65 447.517 1159.14 447.082 1158.76 446.509C1158.38 445.929 1158.19 445.207 1158.19 444.344C1158.19 443.616 1158.33 443.006 1158.6 442.511C1158.86 442.017 1159.23 441.619 1159.69 441.318C1160.15 441.017 1160.67 440.79 1161.25 440.636C1161.85 440.483 1162.46 440.375 1163.11 440.312C1163.87 440.233 1164.49 440.159 1164.95 440.091C1165.42 440.017 1165.76 439.909 1165.97 439.767C1166.18 439.625 1166.28 439.415 1166.28 439.136V439.085C1166.28 438.545 1166.11 438.128 1165.77 437.832C1165.44 437.537 1164.96 437.389 1164.34 437.389C1163.69 437.389 1163.17 437.534 1162.78 437.824C1162.39 438.108 1162.14 438.466 1162.01 438.898L1158.65 438.625C1158.83 437.83 1159.16 437.142 1159.66 436.562C1160.16 435.977 1160.81 435.528 1161.6 435.216C1162.39 434.898 1163.31 434.739 1164.36 434.739C1165.08 434.739 1165.78 434.824 1166.44 434.994C1167.12 435.165 1167.71 435.429 1168.23 435.787C1168.75 436.145 1169.16 436.605 1169.46 437.168C1169.76 437.724 1169.91 438.392 1169.91 439.17V448H1166.47V446.185H1166.37C1166.16 446.594 1165.88 446.955 1165.52 447.267C1165.17 447.574 1164.75 447.815 1164.25 447.991C1163.76 448.162 1163.19 448.247 1162.54 448.247ZM1163.58 445.741C1164.12 445.741 1164.59 445.636 1165 445.426C1165.4 445.21 1165.73 444.92 1165.96 444.557C1166.19 444.193 1166.31 443.781 1166.31 443.321V441.932C1166.19 442.006 1166.04 442.074 1165.84 442.136C1165.65 442.193 1165.43 442.247 1165.18 442.298C1164.94 442.344 1164.69 442.386 1164.45 442.426C1164.21 442.46 1163.98 442.491 1163.79 442.52C1163.36 442.582 1162.99 442.682 1162.67 442.818C1162.35 442.955 1162.1 443.139 1161.93 443.372C1161.75 443.599 1161.66 443.884 1161.66 444.224C1161.66 444.719 1161.84 445.097 1162.2 445.358C1162.56 445.614 1163.02 445.741 1163.58 445.741ZM1178.64 448.256C1177.3 448.256 1176.15 447.972 1175.18 447.403C1174.22 446.83 1173.49 446.034 1172.97 445.017C1172.46 444 1172.2 442.83 1172.2 441.506C1172.2 440.165 1172.46 438.989 1172.98 437.977C1173.5 436.96 1174.24 436.168 1175.2 435.599C1176.16 435.026 1177.3 434.739 1178.63 434.739C1179.77 434.739 1180.77 434.946 1181.63 435.361C1182.49 435.776 1183.16 436.358 1183.66 437.108C1184.16 437.858 1184.44 438.739 1184.49 439.75H1181.07C1180.97 439.097 1180.71 438.571 1180.3 438.173C1179.89 437.77 1179.35 437.568 1178.69 437.568C1178.12 437.568 1177.63 437.722 1177.21 438.028C1176.8 438.33 1176.47 438.77 1176.24 439.349C1176.01 439.929 1175.89 440.631 1175.89 441.455C1175.89 442.29 1176.01 443 1176.23 443.585C1176.47 444.17 1176.79 444.616 1177.21 444.923C1177.63 445.23 1178.12 445.384 1178.69 445.384C1179.1 445.384 1179.47 445.298 1179.8 445.128C1180.14 444.957 1180.41 444.71 1180.63 444.386C1180.85 444.057 1181 443.662 1181.07 443.202H1184.49C1184.43 444.202 1184.16 445.082 1183.67 445.844C1183.19 446.599 1182.52 447.19 1181.67 447.616C1180.82 448.043 1179.81 448.256 1178.64 448.256ZM1192.78 448.256C1191.44 448.256 1190.28 447.983 1189.3 447.438C1188.34 446.886 1187.59 446.108 1187.07 445.102C1186.55 444.091 1186.29 442.895 1186.29 441.514C1186.29 440.168 1186.55 438.986 1187.07 437.969C1187.59 436.952 1188.33 436.159 1189.28 435.591C1190.23 435.023 1191.35 434.739 1192.64 434.739C1193.5 434.739 1194.3 434.878 1195.05 435.156C1195.8 435.429 1196.45 435.841 1197.01 436.392C1197.57 436.943 1198.01 437.636 1198.32 438.472C1198.63 439.301 1198.79 440.273 1198.79 441.386V442.384H1187.74V440.134H1195.37C1195.37 439.611 1195.26 439.148 1195.03 438.744C1194.8 438.341 1194.49 438.026 1194.09 437.798C1193.69 437.565 1193.23 437.449 1192.7 437.449C1192.15 437.449 1191.66 437.577 1191.23 437.832C1190.81 438.082 1190.48 438.42 1190.24 438.847C1190 439.267 1189.88 439.736 1189.88 440.253V442.392C1189.88 443.04 1190 443.599 1190.23 444.071C1190.48 444.543 1190.82 444.906 1191.26 445.162C1191.71 445.418 1192.23 445.545 1192.84 445.545C1193.25 445.545 1193.61 445.489 1193.95 445.375C1194.28 445.261 1194.57 445.091 1194.81 444.864C1195.05 444.636 1195.23 444.358 1195.36 444.028L1198.71 444.25C1198.54 445.057 1198.19 445.761 1197.67 446.364C1197.14 446.96 1196.47 447.426 1195.64 447.761C1194.81 448.091 1193.86 448.256 1192.78 448.256Z" fill="#8D8787"/>
</g>
<defs>
<filter id="filter0_d_8_30" x="136" y="152" width="522" height="493" filterUnits="userSpaceOnUse" color-interpolation-filters="sRGB">
<feFlood flood-opacity="0" result="BackgroundImageFix"/>
<feColorMatrix in="SourceAlpha" type="matrix" values="0 0 0 0 0 0 0 0 0 0 0 0 0 0 0 0 0 0 127 0" result="hardAlpha"/>
<feOffset dx="-7" dy="8"/>
<feGaussianBlur stdDeviation="0.5"/>
<feComposite in2="hardAlpha" operator="out"/>
<feColorMatrix type="matrix" values="0 0 0 0 0 0 0 0 0 0 0 0 0 0 0 0 0 0 0.25 0"/>
<feBlend mode="normal" in2="BackgroundImageFix" result="effect1_dropShadow_8_30"/>
<feBlend mode="normal" in="SourceGraphic" in2="effect1_dropShadow_8_30" result="shape"/>
</filter>
<filter id="filter1_i_8_30" x="160" y="301" width="478" height="67" filterUnits="userSpaceOnUse" color-interpolation-filters="sRGB">
<feFlood flood-opacity="0" result="BackgroundImageFix"/>
<feBlend mode="normal" in="SourceGraphic" in2="BackgroundImageFix" result="shape"/>
<feColorMatrix in="SourceAlpha" type="matrix" values="0 0 0 0 0 0 0 0 0 0 0 0 0 0 0 0 0 0 127 0" result="hardAlpha"/>
<feOffset dx="-9" dy="4"/>
<feGaussianBlur stdDeviation="2"/>
<feComposite in2="hardAlpha" operator="arithmetic" k2="-1" k3="1"/>
<feColorMatrix type="matrix" values="0 0 0 0 0 0 0 0 0 0 0 0 0 0 0 0 0 0 0.25 0"/>
<feBlend mode="normal" in2="shape" result="effect1_innerShadow_8_30"/>
</filter>
<filter id="filter2_i_8_30" x="160" y="382" width="478" height="67" filterUnits="userSpaceOnUse" color-interpolation-filters="sRGB">
<feFlood flood-opacity="0" result="BackgroundImageFix"/>
<feBlend mode="normal" in="SourceGraphic" in2="BackgroundImageFix" result="shape"/>
<feColorMatrix in="SourceAlpha" type="matrix" values="0 0 0 0 0 0 0 0 0 0 0 0 0 0 0 0 0 0 127 0" result="hardAlpha"/>
<feOffset dx="-9" dy="4"/>
<feGaussianBlur stdDeviation="2"/>
<feComposite in2="hardAlpha" operator="arithmetic" k2="-1" k3="1"/>
<feColorMatrix type="matrix" values="0 0 0 0 0 0 0 0 0 0 0 0 0 0 0 0 0 0 0.25 0"/>
<feBlend mode="normal" in2="shape" result="effect1_innerShadow_8_30"/>
</filter>
<filter id="filter3_d_8_30" x="-20" y="-15" width="1417" height="124" filterUnits="userSpaceOnUse" color-interpolation-filters="sRGB">
<feFlood flood-opacity="0" result="BackgroundImageFix"/>
<feColorMatrix in="SourceAlpha" type="matrix" values="0 0 0 0 0 0 0 0 0 0 0 0 0 0 0 0 0 0 127 0" result="hardAlpha"/>
<feOffset dy="5"/>
<feGaussianBlur stdDeviation="10"/>
<feComposite in2="hardAlpha" operator="out"/>
<feColorMatrix type="matrix" values="0 0 0 0 0 0 0 0 0 0 0 0 0 0 0 0 0 0 0.26 0"/>
<feBlend mode="normal" in2="BackgroundImageFix" result="effect1_dropShadow_8_30"/>
<feBlend mode="normal" in="SourceGraphic" in2="effect1_dropShadow_8_30" result="shape"/>
</filter>
<linearGradient id="paint0_linear_8_30" x1="1343" y1="272.489" x2="141.708" y2="622.151" gradientUnits="userSpaceOnUse">
<stop stop-color="#1F1F1F"/>
<stop offset="1" stop-color="#848485" stop-opacity="0"/>
</linearGradient>
<linearGradient id="paint1_linear_8_30" x1="645.309" y1="334.844" x2="141.122" y2="432.161" gradientUnits="userSpaceOnUse">
<stop stop-color="#858484" stop-opacity="0"/>
<stop offset="1" stop-color="#1F1F1F"/>
</linearGradient>
<linearGradient id="paint2_linear_8_30" x1="164" y1="508.5" x2="638" y2="508.5" gradientUnits="userSpaceOnUse">
<stop offset="0.36" stop-color="#BD9B76"/>
<stop offset="1" stop-color="#574736"/>
</linearGradient>
<linearGradient id="paint3_linear_8_30" x1="781" y1="360" x2="1320" y2="360" gradientUnits="userSpaceOnUse">
<stop stop-color="white"/>
<stop offset="1" stop-color="#374151"/>
</linearGradient>
<clipPath id="clip0_8_30">
<rect width="1377" height="720" fill="white"/>
</clipPath>
</defs>
</svg>
